# Blender v3.4.1 OBJ File: 'letters-generator.blend'
# www.blender.org
o Text.062_Font_Curve.070
v 0.055000 0.000000 -0.313000
v 0.529000 0.000000 -0.111000
v 0.529000 0.000000 -0.198000
v 0.153000 0.000000 -0.354000
v 0.529000 0.000000 -0.510000
v 0.529000 0.000000 -0.597000
v 0.055000 0.000000 -0.395000
vt 1.000000 0.000000
vt 0.666667 0.000000
vt 0.833333 0.000000
vt 0.500000 0.000000
vt 0.000000 0.000000
vt 0.333333 0.000000
vt 0.166667 0.000000
vn 0.0000 1.0000 0.0000
s off
f 7/1/1 5/2/1 6/3/1
f 7/1/1 4/4/1 5/2/1
f 1/5/1 4/4/1 7/1/1
f 1/5/1 3/6/1 4/4/1
f 2/7/1 3/6/1 1/5/1
