# Blender v3.4.1 OBJ File: 'letters-generator.blend'
# www.blender.org
o Text.035_Font_Curve.043
v 0.079000 0.000000 -0.543000
v 0.079042 0.000000 -0.532167
v 0.079167 0.000000 -0.521671
v 0.079375 0.000000 -0.511516
v 0.079667 0.000000 -0.501704
v 0.080042 0.000000 -0.492239
v 0.080500 0.000000 -0.483125
v 0.081042 0.000000 -0.474365
v 0.081667 0.000000 -0.465963
v 0.082375 0.000000 -0.457922
v 0.083167 0.000000 -0.450245
v 0.084042 0.000000 -0.442937
v 0.085000 0.000000 -0.436000
v 0.110000 0.000000 -0.264000
v 0.111504 0.000000 -0.253517
v 0.113032 0.000000 -0.244056
v 0.114609 0.000000 -0.235594
v 0.116259 0.000000 -0.228111
v 0.118006 0.000000 -0.221587
v 0.119875 0.000000 -0.216000
v 0.121889 0.000000 -0.211330
v 0.124074 0.000000 -0.207556
v 0.126453 0.000000 -0.204656
v 0.129051 0.000000 -0.202611
v 0.131892 0.000000 -0.201399
v 0.135000 0.000000 -0.201000
v 0.138108 0.000000 -0.201399
v 0.140949 0.000000 -0.202611
v 0.143547 0.000000 -0.204656
v 0.145926 0.000000 -0.207556
v 0.148111 0.000000 -0.211330
v 0.150125 0.000000 -0.216000
v 0.151994 0.000000 -0.221587
v 0.153741 0.000000 -0.228111
v 0.155391 0.000000 -0.235594
v 0.156968 0.000000 -0.244056
v 0.158496 0.000000 -0.253517
v 0.160000 0.000000 -0.264000
v 0.185000 0.000000 -0.436000
v 0.185958 0.000000 -0.442937
v 0.186833 0.000000 -0.450245
v 0.187625 0.000000 -0.457922
v 0.188333 0.000000 -0.465963
v 0.188958 0.000000 -0.474365
v 0.189500 0.000000 -0.483125
v 0.189958 0.000000 -0.492239
v 0.190333 0.000000 -0.501704
v 0.190625 0.000000 -0.511516
v 0.190833 0.000000 -0.521671
v 0.190958 0.000000 -0.532167
v 0.191000 0.000000 -0.543000
v 0.190624 0.000000 -0.566709
v 0.189491 0.000000 -0.588338
v 0.187594 0.000000 -0.607891
v 0.184926 0.000000 -0.625370
v 0.181480 0.000000 -0.640781
v 0.177250 0.000000 -0.654125
v 0.172228 0.000000 -0.665407
v 0.166407 0.000000 -0.674630
v 0.159781 0.000000 -0.681797
v 0.152343 0.000000 -0.686912
v 0.144084 0.000000 -0.689979
v 0.135000 0.000000 -0.691000
v 0.125916 0.000000 -0.689979
v 0.117657 0.000000 -0.686912
v 0.110219 0.000000 -0.681797
v 0.103593 0.000000 -0.674630
v 0.097772 0.000000 -0.665407
v 0.092750 0.000000 -0.654125
v 0.088520 0.000000 -0.640781
v 0.085074 0.000000 -0.625370
v 0.082406 0.000000 -0.607891
v 0.080509 0.000000 -0.588338
v 0.079376 0.000000 -0.566709
v 0.136000 0.000000 -0.111000
v 0.127887 0.000000 -0.110450
v 0.120097 0.000000 -0.108847
v 0.112703 0.000000 -0.106266
v 0.105778 0.000000 -0.102778
v 0.099394 0.000000 -0.098457
v 0.093625 0.000000 -0.093375
v 0.088543 0.000000 -0.087606
v 0.084222 0.000000 -0.081222
v 0.080734 0.000000 -0.074297
v 0.078153 0.000000 -0.066903
v 0.076550 0.000000 -0.059113
v 0.076000 0.000000 -0.051000
v 0.076550 0.000000 -0.042887
v 0.078153 0.000000 -0.035097
v 0.080734 0.000000 -0.027703
v 0.084222 0.000000 -0.020778
v 0.088543 0.000000 -0.014394
v 0.093625 0.000000 -0.008625
v 0.099394 0.000000 -0.003543
v 0.105778 0.000000 0.000778
v 0.112703 0.000000 0.004266
v 0.120097 0.000000 0.006847
v 0.127887 0.000000 0.008450
v 0.136000 0.000000 0.009000
v 0.144113 0.000000 0.008450
v 0.151903 0.000000 0.006847
v 0.159297 0.000000 0.004266
v 0.166222 0.000000 0.000778
v 0.172606 0.000000 -0.003543
v 0.178375 0.000000 -0.008625
v 0.183457 0.000000 -0.014394
v 0.187778 0.000000 -0.020778
v 0.191266 0.000000 -0.027703
v 0.193847 0.000000 -0.035097
v 0.195450 0.000000 -0.042887
v 0.196000 0.000000 -0.051000
v 0.195450 0.000000 -0.059113
v 0.193847 0.000000 -0.066903
v 0.191266 0.000000 -0.074297
v 0.187778 0.000000 -0.081222
v 0.183457 0.000000 -0.087606
v 0.178375 0.000000 -0.093375
v 0.172606 0.000000 -0.098457
v 0.166222 0.000000 -0.102778
v 0.159297 0.000000 -0.106266
v 0.151903 0.000000 -0.108847
v 0.144113 0.000000 -0.110450
vt 0.619835 0.000000
vt 1.000000 0.000000
vt 0.611570 0.000000
vt 0.628099 0.000000
vt 0.991736 0.000000
vt 0.636364 0.000000
vt 0.983471 0.000000
vt 0.644628 0.000000
vt 0.975207 0.000000
vt 0.652893 0.000000
vt 0.966942 0.000000
vt 0.661157 0.000000
vt 0.958678 0.000000
vt 0.669421 0.000000
vt 0.950413 0.000000
vt 0.677686 0.000000
vt 0.942149 0.000000
vt 0.685950 0.000000
vt 0.933884 0.000000
vt 0.694215 0.000000
vt 0.925620 0.000000
vt 0.702479 0.000000
vt 0.917355 0.000000
vt 0.909091 0.000000
vt 0.710744 0.000000
vt 0.719008 0.000000
vt 0.900826 0.000000
vt 0.727273 0.000000
vt 0.892562 0.000000
vt 0.735537 0.000000
vt 0.884298 0.000000
vt 0.743802 0.000000
vt 0.876033 0.000000
vt 0.752066 0.000000
vt 0.867769 0.000000
vt 0.760331 0.000000
vt 0.859504 0.000000
vt 0.768595 0.000000
vt 0.851240 0.000000
vt 0.776860 0.000000
vt 0.842975 0.000000
vt 0.785124 0.000000
vt 0.834711 0.000000
vt 0.793388 0.000000
vt 0.826446 0.000000
vt 0.801653 0.000000
vt 0.818182 0.000000
vt 0.809917 0.000000
vt 0.520661 0.000000
vt 0.504132 0.000000
vt 0.512397 0.000000
vt 0.528926 0.000000
vt 0.495868 0.000000
vt 0.537190 0.000000
vt 0.487603 0.000000
vt 0.545455 0.000000
vt 0.479339 0.000000
vt 0.553719 0.000000
vt 0.471074 0.000000
vt 0.561983 0.000000
vt 0.462810 0.000000
vt 0.570248 0.000000
vt 0.454545 0.000000
vt 0.578512 0.000000
vt 0.446281 0.000000
vt 0.586777 0.000000
vt 0.438017 0.000000
vt 0.595041 0.000000
vt 0.429752 0.000000
vt 0.603306 0.000000
vt 0.421488 0.000000
vt 0.000000 0.000000
vt 0.413223 0.000000
vt 0.008264 0.000000
vt 0.404959 0.000000
vt 0.396694 0.000000
vt 0.016529 0.000000
vt 0.388430 0.000000
vt 0.024793 0.000000
vt 0.380165 0.000000
vt 0.033058 0.000000
vt 0.371901 0.000000
vt 0.041322 0.000000
vt 0.363636 0.000000
vt 0.049587 0.000000
vt 0.355372 0.000000
vt 0.057851 0.000000
vt 0.347107 0.000000
vt 0.066116 0.000000
vt 0.338843 0.000000
vt 0.074380 0.000000
vt 0.330579 0.000000
vt 0.082645 0.000000
vt 0.322314 0.000000
vt 0.090909 0.000000
vt 0.314050 0.000000
vt 0.099174 0.000000
vt 0.107438 0.000000
vt 0.305785 0.000000
vt 0.115702 0.000000
vt 0.297521 0.000000
vt 0.123967 0.000000
vt 0.289256 0.000000
vt 0.132231 0.000000
vt 0.280992 0.000000
vt 0.140496 0.000000
vt 0.272727 0.000000
vt 0.148760 0.000000
vt 0.264463 0.000000
vt 0.157025 0.000000
vt 0.256198 0.000000
vt 0.165289 0.000000
vt 0.247934 0.000000
vt 0.173554 0.000000
vt 0.239669 0.000000
vt 0.181818 0.000000
vt 0.231405 0.000000
vt 0.190083 0.000000
vt 0.223140 0.000000
vt 0.198347 0.000000
vt 0.214876 0.000000
vt 0.206612 0.000000
vn 0.0000 1.0000 0.0000
s off
f 76/1/1 122/2/1 75/3/1
f 77/4/1 122/2/1 76/1/1
f 77/4/1 121/5/1 122/2/1
f 78/6/1 121/5/1 77/4/1
f 78/6/1 120/7/1 121/5/1
f 79/8/1 120/7/1 78/6/1
f 79/8/1 119/9/1 120/7/1
f 80/10/1 119/9/1 79/8/1
f 80/10/1 118/11/1 119/9/1
f 81/12/1 118/11/1 80/10/1
f 81/12/1 117/13/1 118/11/1
f 82/14/1 117/13/1 81/12/1
f 82/14/1 116/15/1 117/13/1
f 83/16/1 116/15/1 82/14/1
f 83/16/1 115/17/1 116/15/1
f 84/18/1 115/17/1 83/16/1
f 84/18/1 114/19/1 115/17/1
f 85/20/1 114/19/1 84/18/1
f 85/20/1 113/21/1 114/19/1
f 86/22/1 113/21/1 85/20/1
f 86/22/1 112/23/1 113/21/1
f 86/22/1 111/24/1 112/23/1
f 87/25/1 111/24/1 86/22/1
f 88/26/1 111/24/1 87/25/1
f 88/26/1 110/27/1 111/24/1
f 89/28/1 110/27/1 88/26/1
f 89/28/1 109/29/1 110/27/1
f 90/30/1 109/29/1 89/28/1
f 90/30/1 108/31/1 109/29/1
f 91/32/1 108/31/1 90/30/1
f 91/32/1 107/33/1 108/31/1
f 92/34/1 107/33/1 91/32/1
f 92/34/1 106/35/1 107/33/1
f 93/36/1 106/35/1 92/34/1
f 93/36/1 105/37/1 106/35/1
f 94/38/1 105/37/1 93/36/1
f 94/38/1 104/39/1 105/37/1
f 95/40/1 104/39/1 94/38/1
f 95/40/1 103/41/1 104/39/1
f 96/42/1 103/41/1 95/40/1
f 96/42/1 102/43/1 103/41/1
f 97/44/1 102/43/1 96/42/1
f 97/44/1 101/45/1 102/43/1
f 98/46/1 101/45/1 97/44/1
f 98/46/1 100/47/1 101/45/1
f 99/48/1 100/47/1 98/46/1
f 64/49/1 62/50/1 63/51/1
f 65/52/1 62/50/1 64/49/1
f 65/52/1 61/53/1 62/50/1
f 66/54/1 61/53/1 65/52/1
f 66/54/1 60/55/1 61/53/1
f 67/56/1 60/55/1 66/54/1
f 67/56/1 59/57/1 60/55/1
f 68/58/1 59/57/1 67/56/1
f 68/58/1 58/59/1 59/57/1
f 69/60/1 58/59/1 68/58/1
f 69/60/1 57/61/1 58/59/1
f 70/62/1 57/61/1 69/60/1
f 70/62/1 56/63/1 57/61/1
f 71/64/1 56/63/1 70/62/1
f 71/64/1 55/65/1 56/63/1
f 72/66/1 55/65/1 71/64/1
f 72/66/1 54/67/1 55/65/1
f 73/68/1 54/67/1 72/66/1
f 73/68/1 53/69/1 54/67/1
f 74/70/1 53/69/1 73/68/1
f 74/70/1 52/71/1 53/69/1
f 1/72/1 52/71/1 74/70/1
f 1/72/1 51/73/1 52/71/1
f 2/74/1 51/73/1 1/72/1
f 2/74/1 50/75/1 51/73/1
f 2/74/1 49/76/1 50/75/1
f 3/77/1 49/76/1 2/74/1
f 3/77/1 48/78/1 49/76/1
f 4/79/1 48/78/1 3/77/1
f 4/79/1 47/80/1 48/78/1
f 5/81/1 47/80/1 4/79/1
f 5/81/1 46/82/1 47/80/1
f 6/83/1 46/82/1 5/81/1
f 6/83/1 45/84/1 46/82/1
f 7/85/1 45/84/1 6/83/1
f 7/85/1 44/86/1 45/84/1
f 8/87/1 44/86/1 7/85/1
f 8/87/1 43/88/1 44/86/1
f 9/89/1 43/88/1 8/87/1
f 9/89/1 42/90/1 43/88/1
f 10/91/1 42/90/1 9/89/1
f 10/91/1 41/92/1 42/90/1
f 11/93/1 41/92/1 10/91/1
f 11/93/1 40/94/1 41/92/1
f 12/95/1 40/94/1 11/93/1
f 12/95/1 39/96/1 40/94/1
f 13/97/1 39/96/1 12/95/1
f 14/98/1 39/96/1 13/97/1
f 14/98/1 38/99/1 39/96/1
f 15/100/1 38/99/1 14/98/1
f 15/100/1 37/101/1 38/99/1
f 16/102/1 37/101/1 15/100/1
f 16/102/1 36/103/1 37/101/1
f 17/104/1 36/103/1 16/102/1
f 17/104/1 35/105/1 36/103/1
f 18/106/1 35/105/1 17/104/1
f 18/106/1 34/107/1 35/105/1
f 19/108/1 34/107/1 18/106/1
f 19/108/1 33/109/1 34/107/1
f 20/110/1 33/109/1 19/108/1
f 20/110/1 32/111/1 33/109/1
f 21/112/1 32/111/1 20/110/1
f 21/112/1 31/113/1 32/111/1
f 22/114/1 31/113/1 21/112/1
f 22/114/1 30/115/1 31/113/1
f 23/116/1 30/115/1 22/114/1
f 23/116/1 29/117/1 30/115/1
f 24/118/1 29/117/1 23/116/1
f 24/118/1 28/119/1 29/117/1
f 25/120/1 28/119/1 24/118/1
f 25/120/1 27/121/1 28/119/1
f 26/122/1 27/121/1 25/120/1
