# Blender v3.4.1 OBJ File: 'letters-generator.blend'
# www.blender.org
o Text.093_Font_Curve.101
v 0.319000 0.000000 -0.682000
v 0.086000 0.000000 -0.682000
v 0.086000 0.000000 0.221000
v 0.319000 0.000000 0.221000
v 0.319000 0.000000 0.141000
v 0.182000 0.000000 0.141000
v 0.182000 0.000000 -0.602000
v 0.319000 0.000000 -0.602000
vt 0.285714 0.000000
vt 0.857143 0.000000
vt 0.142857 0.000000
vt 0.000000 0.000000
vt 1.000000 0.000000
vt 0.714286 0.000000
vt 0.571429 0.000000
vt 0.428571 0.000000
vn 0.0000 1.0000 0.0000
s off
f 3/1/1 7/2/1 2/3/1
f 7/2/1 1/4/1 2/3/1
f 7/2/1 8/5/1 1/4/1
f 3/1/1 6/6/1 7/2/1
f 3/1/1 5/7/1 6/6/1
f 3/1/1 4/8/1 5/7/1
