# Blender v3.4.1 OBJ File: 'letters-generator.blend'
# www.blender.org
o Text.127_Font_Curve.135
v 0.305000 0.000000 -0.299000
v 0.285787 0.000000 -0.300259
v 0.269046 0.000000 -0.303991
v 0.254625 0.000000 -0.310125
v 0.242370 0.000000 -0.318593
v 0.232130 0.000000 -0.329324
v 0.223750 0.000000 -0.342250
v 0.217079 0.000000 -0.357301
v 0.211963 0.000000 -0.374407
v 0.208250 0.000000 -0.393500
v 0.205787 0.000000 -0.414509
v 0.204421 0.000000 -0.437366
v 0.204000 0.000000 -0.462000
v 0.204000 0.000000 -0.550000
v 0.203249 0.000000 -0.577870
v 0.200912 0.000000 -0.603463
v 0.196859 0.000000 -0.626750
v 0.190963 0.000000 -0.647704
v 0.183094 0.000000 -0.666296
v 0.173125 0.000000 -0.682500
v 0.160927 0.000000 -0.696287
v 0.146370 0.000000 -0.707630
v 0.129328 0.000000 -0.716500
v 0.109671 0.000000 -0.722870
v 0.087271 0.000000 -0.726713
v 0.062000 0.000000 -0.728000
v 0.023000 0.000000 -0.728000
v 0.023000 0.000000 -0.652000
v 0.038000 0.000000 -0.652000
v 0.054358 0.000000 -0.651598
v 0.068528 0.000000 -0.650282
v 0.080656 0.000000 -0.647891
v 0.090889 0.000000 -0.644259
v 0.099372 0.000000 -0.639225
v 0.106250 0.000000 -0.632625
v 0.111670 0.000000 -0.624296
v 0.115778 0.000000 -0.614074
v 0.118719 0.000000 -0.601797
v 0.120639 0.000000 -0.587301
v 0.121684 0.000000 -0.570423
v 0.122000 0.000000 -0.551000
v 0.122000 0.000000 -0.479000
v 0.122575 0.000000 -0.446923
v 0.124347 0.000000 -0.418051
v 0.127391 0.000000 -0.392172
v 0.131778 0.000000 -0.369074
v 0.137582 0.000000 -0.348546
v 0.144875 0.000000 -0.330375
v 0.153731 0.000000 -0.314350
v 0.164222 0.000000 -0.300259
v 0.176422 0.000000 -0.287891
v 0.190403 0.000000 -0.277032
v 0.206238 0.000000 -0.267473
v 0.224000 0.000000 -0.259000
v 0.206238 0.000000 -0.250527
v 0.190403 0.000000 -0.240968
v 0.176422 0.000000 -0.230109
v 0.164222 0.000000 -0.217741
v 0.153731 0.000000 -0.203650
v 0.144875 0.000000 -0.187625
v 0.137582 0.000000 -0.169454
v 0.131778 0.000000 -0.148926
v 0.127391 0.000000 -0.125828
v 0.124347 0.000000 -0.099949
v 0.122575 0.000000 -0.071077
v 0.122000 0.000000 -0.039000
v 0.122000 0.000000 0.033000
v 0.121684 0.000000 0.052423
v 0.120639 0.000000 0.069301
v 0.118719 0.000000 0.083797
v 0.115778 0.000000 0.096074
v 0.111670 0.000000 0.106296
v 0.106250 0.000000 0.114625
v 0.099372 0.000000 0.121225
v 0.090889 0.000000 0.126259
v 0.080656 0.000000 0.129891
v 0.068528 0.000000 0.132282
v 0.054358 0.000000 0.133598
v 0.038000 0.000000 0.134000
v 0.023000 0.000000 0.134000
v 0.023000 0.000000 0.210000
v 0.062000 0.000000 0.210000
v 0.087271 0.000000 0.208713
v 0.109671 0.000000 0.204870
v 0.129328 0.000000 0.198500
v 0.146370 0.000000 0.189630
v 0.160927 0.000000 0.178287
v 0.173125 0.000000 0.164500
v 0.183094 0.000000 0.148296
v 0.190963 0.000000 0.129704
v 0.196859 0.000000 0.108750
v 0.200912 0.000000 0.085463
v 0.203249 0.000000 0.059870
v 0.204000 0.000000 0.032000
v 0.204000 0.000000 -0.056000
v 0.204421 0.000000 -0.080634
v 0.205787 0.000000 -0.103491
v 0.208250 0.000000 -0.124500
v 0.211963 0.000000 -0.143593
v 0.217079 0.000000 -0.160699
v 0.223750 0.000000 -0.175750
v 0.232130 0.000000 -0.188676
v 0.242370 0.000000 -0.199407
v 0.254625 0.000000 -0.207875
v 0.269046 0.000000 -0.214009
v 0.285787 0.000000 -0.217741
v 0.305000 0.000000 -0.219000
vt 0.254717 0.000000
vt 0.235849 0.000000
vt 0.245283 0.000000
vt 0.226415 0.000000
vt 0.216981 0.000000
vt 0.207547 0.000000
vt 0.198113 0.000000
vt 0.188679 0.000000
vt 0.179245 0.000000
vt 0.169811 0.000000
vt 0.264151 0.000000
vt 0.273585 0.000000
vt 0.160377 0.000000
vt 0.283019 0.000000
vt 0.292453 0.000000
vt 0.301887 0.000000
vt 0.150943 0.000000
vt 0.311321 0.000000
vt 0.320755 0.000000
vt 0.330189 0.000000
vt 0.141509 0.000000
vt 0.339623 0.000000
vt 0.349057 0.000000
vt 0.132075 0.000000
vt 0.358491 0.000000
vt 0.367925 0.000000
vt 0.122642 0.000000
vt 0.377358 0.000000
vt 0.386792 0.000000
vt 0.113208 0.000000
vt 0.396226 0.000000
vt 0.103774 0.000000
vt 0.405660 0.000000
vt 0.094340 0.000000
vt 0.415094 0.000000
vt 0.084906 0.000000
vt 0.075472 0.000000
vt 0.424528 0.000000
vt 0.066038 0.000000
vt 0.433962 0.000000
vt 0.056604 0.000000
vt 0.443396 0.000000
vt 0.047170 0.000000
vt 0.452830 0.000000
vt 0.037736 0.000000
vt 0.028302 0.000000
vt 0.462264 0.000000
vt 0.018868 0.000000
vt 0.009434 0.000000
vt 0.000000 0.000000
vt 0.471698 0.000000
vt 1.000000 0.000000
vt 0.481132 0.000000
vt 0.490566 0.000000
vt 0.500000 0.000000
vt 0.509434 0.000000
vt 0.518868 0.000000
vt 0.528302 0.000000
vt 0.537736 0.000000
vt 0.990566 0.000000
vt 0.547170 0.000000
vt 0.981132 0.000000
vt 0.971698 0.000000
vt 0.962264 0.000000
vt 0.556604 0.000000
vt 0.952830 0.000000
vt 0.943396 0.000000
vt 0.566038 0.000000
vt 0.933962 0.000000
vt 0.575472 0.000000
vt 0.924528 0.000000
vt 0.584906 0.000000
vt 0.915094 0.000000
vt 0.594340 0.000000
vt 0.905660 0.000000
vt 0.896226 0.000000
vt 0.603774 0.000000
vt 0.886792 0.000000
vt 0.613208 0.000000
vt 0.877358 0.000000
vt 0.622642 0.000000
vt 0.867925 0.000000
vt 0.632075 0.000000
vt 0.641509 0.000000
vt 0.858491 0.000000
vt 0.650943 0.000000
vt 0.660377 0.000000
vt 0.849057 0.000000
vt 0.669811 0.000000
vt 0.679245 0.000000
vt 0.839623 0.000000
vt 0.688679 0.000000
vt 0.698113 0.000000
vt 0.707547 0.000000
vt 0.830189 0.000000
vt 0.716981 0.000000
vt 0.726415 0.000000
vt 0.735849 0.000000
vt 0.754717 0.000000
vt 0.745283 0.000000
vt 0.820755 0.000000
vt 0.811321 0.000000
vt 0.801887 0.000000
vt 0.792453 0.000000
vt 0.783019 0.000000
vt 0.773585 0.000000
vt 0.764151 0.000000
vn 0.0000 1.0000 0.0000
s off
f 28/1/1 26/2/1 27/3/1
f 28/1/1 25/4/1 26/2/1
f 28/1/1 24/5/1 25/4/1
f 28/1/1 23/6/1 24/5/1
f 28/1/1 22/7/1 23/6/1
f 28/1/1 21/8/1 22/7/1
f 28/1/1 20/9/1 21/8/1
f 28/1/1 19/10/1 20/9/1
f 28/1/1 29/11/1 19/10/1
f 29/11/1 30/12/1 19/10/1
f 30/12/1 18/13/1 19/10/1
f 31/14/1 18/13/1 30/12/1
f 32/15/1 18/13/1 31/14/1
f 33/16/1 18/13/1 32/15/1
f 33/16/1 17/17/1 18/13/1
f 34/18/1 17/17/1 33/16/1
f 35/19/1 17/17/1 34/18/1
f 36/20/1 17/17/1 35/19/1
f 36/20/1 16/21/1 17/17/1
f 37/22/1 16/21/1 36/20/1
f 38/23/1 16/21/1 37/22/1
f 38/23/1 15/24/1 16/21/1
f 39/25/1 15/24/1 38/23/1
f 40/26/1 15/24/1 39/25/1
f 40/26/1 14/27/1 15/24/1
f 41/28/1 14/27/1 40/26/1
f 42/29/1 14/27/1 41/28/1
f 42/29/1 13/30/1 14/27/1
f 43/31/1 13/30/1 42/29/1
f 43/31/1 12/32/1 13/30/1
f 44/33/1 12/32/1 43/31/1
f 44/33/1 11/34/1 12/32/1
f 45/35/1 11/34/1 44/33/1
f 45/35/1 10/36/1 11/34/1
f 45/35/1 9/37/1 10/36/1
f 46/38/1 9/37/1 45/35/1
f 46/38/1 8/39/1 9/37/1
f 47/40/1 8/39/1 46/38/1
f 47/40/1 7/41/1 8/39/1
f 48/42/1 7/41/1 47/40/1
f 48/42/1 6/43/1 7/41/1
f 49/44/1 6/43/1 48/42/1
f 49/44/1 5/45/1 6/43/1
f 49/44/1 4/46/1 5/45/1
f 50/47/1 4/46/1 49/44/1
f 50/47/1 3/48/1 4/46/1
f 50/47/1 2/49/1 3/48/1
f 50/47/1 1/50/1 2/49/1
f 51/51/1 1/50/1 50/47/1
f 51/51/1 107/52/1 1/50/1
f 52/53/1 107/52/1 51/51/1
f 53/54/1 54/55/1 52/53/1
f 54/55/1 107/52/1 52/53/1
f 55/56/1 107/52/1 54/55/1
f 56/57/1 107/52/1 55/56/1
f 57/58/1 107/52/1 56/57/1
f 58/59/1 107/52/1 57/58/1
f 58/59/1 106/60/1 107/52/1
f 59/61/1 106/60/1 58/59/1
f 59/61/1 105/62/1 106/60/1
f 59/61/1 104/63/1 105/62/1
f 59/61/1 103/64/1 104/63/1
f 60/65/1 103/64/1 59/61/1
f 60/65/1 102/66/1 103/64/1
f 60/65/1 101/67/1 102/66/1
f 61/68/1 101/67/1 60/65/1
f 61/68/1 100/69/1 101/67/1
f 62/70/1 100/69/1 61/68/1
f 62/70/1 99/71/1 100/69/1
f 63/72/1 99/71/1 62/70/1
f 63/72/1 98/73/1 99/71/1
f 64/74/1 98/73/1 63/72/1
f 64/74/1 97/75/1 98/73/1
f 64/74/1 96/76/1 97/75/1
f 65/77/1 96/76/1 64/74/1
f 65/77/1 95/78/1 96/76/1
f 66/79/1 95/78/1 65/77/1
f 66/79/1 94/80/1 95/78/1
f 67/81/1 94/80/1 66/79/1
f 67/81/1 93/82/1 94/80/1
f 68/83/1 93/82/1 67/81/1
f 69/84/1 93/82/1 68/83/1
f 69/84/1 92/85/1 93/82/1
f 70/86/1 92/85/1 69/84/1
f 71/87/1 92/85/1 70/86/1
f 71/87/1 91/88/1 92/85/1
f 72/89/1 91/88/1 71/87/1
f 73/90/1 91/88/1 72/89/1
f 73/90/1 90/91/1 91/88/1
f 74/92/1 90/91/1 73/90/1
f 75/93/1 90/91/1 74/92/1
f 76/94/1 90/91/1 75/93/1
f 76/94/1 89/95/1 90/91/1
f 77/96/1 89/95/1 76/94/1
f 78/97/1 89/95/1 77/96/1
f 79/98/1 89/95/1 78/97/1
f 81/99/1 79/98/1 80/100/1
f 81/99/1 89/95/1 79/98/1
f 81/99/1 88/101/1 89/95/1
f 81/99/1 87/102/1 88/101/1
f 81/99/1 86/103/1 87/102/1
f 81/99/1 85/104/1 86/103/1
f 81/99/1 84/105/1 85/104/1
f 81/99/1 83/106/1 84/105/1
f 81/99/1 82/107/1 83/106/1
