# Blender v3.4.1 OBJ File: 'letters-generator.blend'
# www.blender.org
o Text.040_Font_Curve.048
v 0.495000 0.000000 -0.339000
v 0.490947 0.000000 -0.330228
v 0.486329 0.000000 -0.320991
v 0.481203 0.000000 -0.311406
v 0.475630 0.000000 -0.301593
v 0.469667 0.000000 -0.291668
v 0.463375 0.000000 -0.281750
v 0.456812 0.000000 -0.271957
v 0.450037 0.000000 -0.262407
v 0.443109 0.000000 -0.253219
v 0.436088 0.000000 -0.244509
v 0.429032 0.000000 -0.236397
v 0.422000 0.000000 -0.229000
v 0.326000 0.000000 -0.339000
v 0.346946 0.000000 -0.354345
v 0.365815 0.000000 -0.369426
v 0.382656 0.000000 -0.384313
v 0.397519 0.000000 -0.399074
v 0.410450 0.000000 -0.413780
v 0.421500 0.000000 -0.428500
v 0.430716 0.000000 -0.443303
v 0.438148 0.000000 -0.458259
v 0.443844 0.000000 -0.473438
v 0.447852 0.000000 -0.488907
v 0.450221 0.000000 -0.504738
v 0.451000 0.000000 -0.521000
v 0.449607 0.000000 -0.541348
v 0.445519 0.000000 -0.560782
v 0.438875 0.000000 -0.579141
v 0.429815 0.000000 -0.596259
v 0.418477 0.000000 -0.611975
v 0.405000 0.000000 -0.626125
v 0.389523 0.000000 -0.638546
v 0.372185 0.000000 -0.649074
v 0.353125 0.000000 -0.657547
v 0.332482 0.000000 -0.663801
v 0.310394 0.000000 -0.667673
v 0.287000 0.000000 -0.669000
v 0.261289 0.000000 -0.667725
v 0.237231 0.000000 -0.663968
v 0.214938 0.000000 -0.657828
v 0.194519 0.000000 -0.649407
v 0.176086 0.000000 -0.638806
v 0.159750 0.000000 -0.626125
v 0.145623 0.000000 -0.611465
v 0.133815 0.000000 -0.594926
v 0.124438 0.000000 -0.576609
v 0.117602 0.000000 -0.556616
v 0.113419 0.000000 -0.535046
v 0.112000 0.000000 -0.512000
v 0.112751 0.000000 -0.497509
v 0.114926 0.000000 -0.483074
v 0.118406 0.000000 -0.468750
v 0.123074 0.000000 -0.454593
v 0.128811 0.000000 -0.440657
v 0.135500 0.000000 -0.427000
v 0.143022 0.000000 -0.413676
v 0.151259 0.000000 -0.400741
v 0.160094 0.000000 -0.388250
v 0.169407 0.000000 -0.376259
v 0.179082 0.000000 -0.364824
v 0.189000 0.000000 -0.354000
v 0.165876 0.000000 -0.340057
v 0.144088 0.000000 -0.325708
v 0.123766 0.000000 -0.310922
v 0.105037 0.000000 -0.295667
v 0.088031 0.000000 -0.279911
v 0.072875 0.000000 -0.263625
v 0.059698 0.000000 -0.246776
v 0.048630 0.000000 -0.229333
v 0.039797 0.000000 -0.211266
v 0.033329 0.000000 -0.192542
v 0.029354 0.000000 -0.173130
v 0.028000 0.000000 -0.153000
v 0.029608 0.000000 -0.130696
v 0.034282 0.000000 -0.109403
v 0.041797 0.000000 -0.089297
v 0.051926 0.000000 -0.070556
v 0.064444 0.000000 -0.053356
v 0.079125 0.000000 -0.037875
v 0.095744 0.000000 -0.024290
v 0.114074 0.000000 -0.012778
v 0.133891 0.000000 -0.003516
v 0.154968 0.000000 0.003319
v 0.177079 0.000000 0.007550
v 0.200000 0.000000 0.009000
v 0.215651 0.000000 0.008464
v 0.231625 0.000000 0.006792
v 0.247953 0.000000 0.003891
v 0.264667 0.000000 -0.000333
v 0.281797 0.000000 -0.005974
v 0.299375 0.000000 -0.013125
v 0.317432 0.000000 -0.021880
v 0.336000 0.000000 -0.032333
v 0.355109 0.000000 -0.044578
v 0.374792 0.000000 -0.058708
v 0.395078 0.000000 -0.074818
v 0.416000 0.000000 -0.093000
v 0.494000 0.000000 0.000000
v 0.620000 0.000000 0.000000
v 0.482000 0.000000 -0.160000
v 0.494535 0.000000 -0.174446
v 0.506611 0.000000 -0.189232
v 0.518188 0.000000 -0.204281
v 0.529222 0.000000 -0.219519
v 0.539674 0.000000 -0.234867
v 0.549500 0.000000 -0.250250
v 0.558660 0.000000 -0.265591
v 0.567111 0.000000 -0.280815
v 0.574813 0.000000 -0.295844
v 0.581722 0.000000 -0.310602
v 0.587799 0.000000 -0.325013
v 0.593000 0.000000 -0.339000
v 0.356000 0.000000 -0.161000
v 0.344209 0.000000 -0.149553
v 0.332338 0.000000 -0.138755
v 0.320391 0.000000 -0.128672
v 0.308370 0.000000 -0.119370
v 0.296281 0.000000 -0.110916
v 0.284125 0.000000 -0.103375
v 0.271907 0.000000 -0.096813
v 0.259630 0.000000 -0.091296
v 0.247297 0.000000 -0.086891
v 0.234912 0.000000 -0.083662
v 0.222479 0.000000 -0.081677
v 0.210000 0.000000 -0.081000
v 0.199161 0.000000 -0.081672
v 0.188708 0.000000 -0.083625
v 0.178734 0.000000 -0.086766
v 0.169333 0.000000 -0.091000
v 0.160599 0.000000 -0.096234
v 0.152625 0.000000 -0.102375
v 0.145505 0.000000 -0.109328
v 0.139333 0.000000 -0.117000
v 0.134203 0.000000 -0.125297
v 0.130208 0.000000 -0.134125
v 0.127443 0.000000 -0.143391
v 0.126000 0.000000 -0.153000
v 0.126890 0.000000 -0.165893
v 0.129537 0.000000 -0.178144
v 0.133906 0.000000 -0.189859
v 0.139963 0.000000 -0.201148
v 0.147672 0.000000 -0.212117
v 0.157000 0.000000 -0.222875
v 0.167911 0.000000 -0.233528
v 0.180370 0.000000 -0.244185
v 0.194344 0.000000 -0.254953
v 0.209796 0.000000 -0.265940
v 0.226693 0.000000 -0.277253
v 0.245000 0.000000 -0.289000
v 0.208000 0.000000 -0.521000
v 0.208654 0.000000 -0.530052
v 0.210565 0.000000 -0.538662
v 0.213656 0.000000 -0.546766
v 0.217852 0.000000 -0.554296
v 0.223075 0.000000 -0.561188
v 0.229250 0.000000 -0.567375
v 0.236300 0.000000 -0.572791
v 0.244148 0.000000 -0.577370
v 0.252719 0.000000 -0.581047
v 0.261935 0.000000 -0.583755
v 0.271721 0.000000 -0.585428
v 0.282000 0.000000 -0.586000
v 0.292988 0.000000 -0.585387
v 0.303403 0.000000 -0.583593
v 0.313172 0.000000 -0.580688
v 0.322222 0.000000 -0.576741
v 0.330481 0.000000 -0.571822
v 0.337875 0.000000 -0.566000
v 0.344332 0.000000 -0.559345
v 0.349778 0.000000 -0.551926
v 0.354141 0.000000 -0.543812
v 0.357347 0.000000 -0.535074
v 0.359325 0.000000 -0.525780
v 0.360000 0.000000 -0.516000
v 0.359643 0.000000 -0.507342
v 0.358477 0.000000 -0.498819
v 0.356359 0.000000 -0.490359
v 0.353148 0.000000 -0.481889
v 0.348701 0.000000 -0.473335
v 0.342875 0.000000 -0.464625
v 0.335528 0.000000 -0.455686
v 0.326519 0.000000 -0.446444
v 0.315703 0.000000 -0.436828
v 0.302940 0.000000 -0.426764
v 0.288086 0.000000 -0.416179
v 0.271000 0.000000 -0.405000
v 0.263668 0.000000 -0.412362
v 0.256264 0.000000 -0.420398
v 0.248922 0.000000 -0.429031
v 0.241778 0.000000 -0.438185
v 0.234967 0.000000 -0.447784
v 0.228625 0.000000 -0.457750
v 0.222887 0.000000 -0.468008
v 0.217889 0.000000 -0.478482
v 0.213766 0.000000 -0.489094
v 0.210653 0.000000 -0.499769
v 0.208686 0.000000 -0.510429
vt 0.192893 0.000000
vt 0.182741 0.000000
vt 0.187817 0.000000
vt 0.197970 0.000000
vt 0.177665 0.000000
vt 0.203046 0.000000
vt 0.172589 0.000000
vt 0.208122 0.000000
vt 0.167513 0.000000
vt 0.213198 0.000000
vt 0.162437 0.000000
vt 0.218274 0.000000
vt 0.157360 0.000000
vt 0.223350 0.000000
vt 0.152284 0.000000
vt 0.147208 0.000000
vt 0.228426 0.000000
vt 0.142132 0.000000
vt 0.233503 0.000000
vt 0.817259 0.000000
vt 0.822335 0.000000
vt 0.827411 0.000000
vt 0.812183 0.000000
vt 0.832487 0.000000
vt 0.807107 0.000000
vt 0.837563 0.000000
vt 0.802030 0.000000
vt 0.842640 0.000000
vt 0.137056 0.000000
vt 0.796954 0.000000
vt 0.847716 0.000000
vt 0.238579 0.000000
vt 0.791878 0.000000
vt 0.852792 0.000000
vt 0.786802 0.000000
vt 0.857868 0.000000
vt 0.781726 0.000000
vt 0.131980 0.000000
vt 0.862944 0.000000
vt 0.243655 0.000000
vt 0.776650 0.000000
vt 0.868020 0.000000
vt 0.771574 0.000000
vt 0.873096 0.000000
vt 0.126904 0.000000
vt 0.766497 0.000000
vt 0.878173 0.000000
vt 0.248731 0.000000
vt 0.761421 0.000000
vt 0.883249 0.000000
vt 1.000000 0.000000
vt 0.121827 0.000000
vt 0.888325 0.000000
vt 0.253807 0.000000
vt 0.994924 0.000000
vt 0.893401 0.000000
vt 0.116751 0.000000
vt 0.989848 0.000000
vt 0.898477 0.000000
vt 0.258883 0.000000
vt 0.903553 0.000000
vt 0.984772 0.000000
vt 0.111675 0.000000
vt 0.263959 0.000000
vt 0.908629 0.000000
vt 0.979695 0.000000
vt 0.106599 0.000000
vt 0.913706 0.000000
vt 0.269036 0.000000
vt 0.974619 0.000000
vt 0.918782 0.000000
vt 0.101523 0.000000
vt 0.969543 0.000000
vt 0.923858 0.000000
vt 0.274112 0.000000
vt 0.964467 0.000000
vt 0.928934 0.000000
vt 0.096447 0.000000
vt 0.279188 0.000000
vt 0.959391 0.000000
vt 0.934010 0.000000
vt 0.954315 0.000000
vt 0.091371 0.000000
vt 0.284264 0.000000
vt 0.939086 0.000000
vt 0.949239 0.000000
vt 0.944162 0.000000
vt 0.086294 0.000000
vt 0.289340 0.000000
vt 0.294416 0.000000
vt 0.081218 0.000000
vt 0.299492 0.000000
vt 0.076142 0.000000
vt 0.304569 0.000000
vt 0.071066 0.000000
vt 0.309645 0.000000
vt 0.065990 0.000000
vt 0.314721 0.000000
vt 0.319797 0.000000
vt 0.060914 0.000000
vt 0.005076 0.000000
vt 0.568528 0.000000
vt 0.000000 0.000000
vt 0.563452 0.000000
vt 0.010152 0.000000
vt 0.324873 0.000000
vt 0.756345 0.000000
vt 0.558376 0.000000
vt 0.015228 0.000000
vt 0.020305 0.000000
vt 0.329949 0.000000
vt 0.553299 0.000000
vt 0.025381 0.000000
vt 0.548223 0.000000
vt 0.335025 0.000000
vt 0.030457 0.000000
vt 0.751269 0.000000
vt 0.573604 0.000000
vt 0.035533 0.000000
vt 0.543147 0.000000
vt 0.340102 0.000000
vt 0.746193 0.000000
vt 0.040609 0.000000
vt 0.741117 0.000000
vt 0.538071 0.000000
vt 0.345178 0.000000
vt 0.045685 0.000000
vt 0.736041 0.000000
vt 0.050761 0.000000
vt 0.532995 0.000000
vt 0.350254 0.000000
vt 0.055838 0.000000
vt 0.730964 0.000000
vt 0.527919 0.000000
vt 0.725888 0.000000
vt 0.355330 0.000000
vt 0.720812 0.000000
vt 0.522843 0.000000
vt 0.715736 0.000000
vt 0.360406 0.000000
vt 0.517766 0.000000
vt 0.710660 0.000000
vt 0.365482 0.000000
vt 0.705584 0.000000
vt 0.512690 0.000000
vt 0.700508 0.000000
vt 0.507614 0.000000
vt 0.370558 0.000000
vt 0.695431 0.000000
vt 0.578680 0.000000
vt 0.502538 0.000000
vt 0.375635 0.000000
vt 0.690355 0.000000
vt 0.583756 0.000000
vt 0.685279 0.000000
vt 0.588832 0.000000
vt 0.492386 0.000000
vt 0.680203 0.000000
vt 0.380711 0.000000
vt 0.593909 0.000000
vt 0.675127 0.000000
vt 0.598985 0.000000
vt 0.670051 0.000000
vt 0.604061 0.000000
vt 0.385787 0.000000
vt 0.664975 0.000000
vt 0.609137 0.000000
vt 0.659898 0.000000
vt 0.614213 0.000000
vt 0.654822 0.000000
vt 0.487310 0.000000
vt 0.497462 0.000000
vt 0.619289 0.000000
vt 0.649746 0.000000
vt 0.390863 0.000000
vt 0.624366 0.000000
vt 0.644670 0.000000
vt 0.629442 0.000000
vt 0.639594 0.000000
vt 0.634518 0.000000
vt 0.482233 0.000000
vt 0.395939 0.000000
vt 0.477157 0.000000
vt 0.401015 0.000000
vt 0.472081 0.000000
vt 0.406091 0.000000
vt 0.467005 0.000000
vt 0.411168 0.000000
vt 0.461929 0.000000
vt 0.456853 0.000000
vt 0.416244 0.000000
vt 0.451777 0.000000
vt 0.421320 0.000000
vt 0.446701 0.000000
vt 0.426396 0.000000
vt 0.441624 0.000000
vt 0.436548 0.000000
vt 0.431472 0.000000
vn 0.0000 1.0000 0.0000
s off
f 39/1/1 37/2/1 38/3/1
f 40/4/1 37/2/1 39/1/1
f 40/4/1 36/5/1 37/2/1
f 41/6/1 36/5/1 40/4/1
f 41/6/1 35/7/1 36/5/1
f 42/8/1 35/7/1 41/6/1
f 42/8/1 34/9/1 35/7/1
f 43/10/1 34/9/1 42/8/1
f 43/10/1 33/11/1 34/9/1
f 44/12/1 33/11/1 43/10/1
f 44/12/1 32/13/1 33/11/1
f 45/14/1 32/13/1 44/12/1
f 45/14/1 31/15/1 32/13/1
f 45/14/1 30/16/1 31/15/1
f 46/17/1 30/16/1 45/14/1
f 46/17/1 29/18/1 30/16/1
f 47/19/1 162/20/1 46/17/1
f 162/20/1 163/21/1 46/17/1
f 163/21/1 29/18/1 46/17/1
f 164/22/1 29/18/1 163/21/1
f 47/19/1 161/23/1 162/20/1
f 165/24/1 29/18/1 164/22/1
f 47/19/1 160/25/1 161/23/1
f 166/26/1 29/18/1 165/24/1
f 47/19/1 159/27/1 160/25/1
f 167/28/1 29/18/1 166/26/1
f 167/28/1 28/29/1 29/18/1
f 47/19/1 158/30/1 159/27/1
f 168/31/1 28/29/1 167/28/1
f 48/32/1 158/30/1 47/19/1
f 48/32/1 157/33/1 158/30/1
f 169/34/1 28/29/1 168/31/1
f 48/32/1 156/35/1 157/33/1
f 170/36/1 28/29/1 169/34/1
f 48/32/1 155/37/1 156/35/1
f 170/36/1 27/38/1 28/29/1
f 171/39/1 27/38/1 170/36/1
f 49/40/1 155/37/1 48/32/1
f 49/40/1 154/41/1 155/37/1
f 172/42/1 27/38/1 171/39/1
f 49/40/1 153/43/1 154/41/1
f 173/44/1 27/38/1 172/42/1
f 173/44/1 26/45/1 27/38/1
f 49/40/1 152/46/1 153/43/1
f 174/47/1 26/45/1 173/44/1
f 50/48/1 152/46/1 49/40/1
f 50/48/1 151/49/1 152/46/1
f 175/50/1 26/45/1 174/47/1
f 50/48/1 198/51/1 151/49/1
f 175/50/1 25/52/1 26/45/1
f 176/53/1 25/52/1 175/50/1
f 51/54/1 198/51/1 50/48/1
f 51/54/1 197/55/1 198/51/1
f 177/56/1 25/52/1 176/53/1
f 177/56/1 24/57/1 25/52/1
f 51/54/1 196/58/1 197/55/1
f 178/59/1 24/57/1 177/56/1
f 52/60/1 196/58/1 51/54/1
f 179/61/1 24/57/1 178/59/1
f 52/60/1 195/62/1 196/58/1
f 179/61/1 23/63/1 24/57/1
f 53/64/1 195/62/1 52/60/1
f 180/65/1 23/63/1 179/61/1
f 53/64/1 194/66/1 195/62/1
f 180/65/1 22/67/1 23/63/1
f 181/68/1 22/67/1 180/65/1
f 54/69/1 194/66/1 53/64/1
f 54/69/1 193/70/1 194/66/1
f 182/71/1 22/67/1 181/68/1
f 182/71/1 21/72/1 22/67/1
f 54/69/1 192/73/1 193/70/1
f 183/74/1 21/72/1 182/71/1
f 55/75/1 192/73/1 54/69/1
f 55/75/1 191/76/1 192/73/1
f 184/77/1 21/72/1 183/74/1
f 184/77/1 20/78/1 21/72/1
f 56/79/1 191/76/1 55/75/1
f 56/79/1 190/80/1 191/76/1
f 185/81/1 20/78/1 184/77/1
f 56/79/1 189/82/1 190/80/1
f 185/81/1 19/83/1 20/78/1
f 57/84/1 189/82/1 56/79/1
f 186/85/1 19/83/1 185/81/1
f 57/84/1 188/86/1 189/82/1
f 187/87/1 19/83/1 186/85/1
f 187/87/1 18/88/1 19/83/1
f 58/89/1 188/86/1 57/84/1
f 58/89/1 187/87/1 188/86/1
f 58/89/1 18/88/1 187/87/1
f 59/90/1 18/88/1 58/89/1
f 59/90/1 17/91/1 18/88/1
f 60/92/1 17/91/1 59/90/1
f 60/92/1 16/93/1 17/91/1
f 61/94/1 16/93/1 60/92/1
f 61/94/1 15/95/1 16/93/1
f 62/96/1 15/95/1 61/94/1
f 62/96/1 14/97/1 15/95/1
f 63/98/1 14/97/1 62/96/1
f 64/99/1 14/97/1 63/98/1
f 64/99/1 13/100/1 14/97/1
f 2/101/1 113/102/1 1/103/1
f 2/101/1 112/104/1 113/102/1
f 3/105/1 112/104/1 2/101/1
f 65/106/1 150/107/1 64/99/1
f 150/107/1 13/100/1 64/99/1
f 3/105/1 111/108/1 112/104/1
f 4/109/1 111/108/1 3/105/1
f 5/110/1 111/108/1 4/109/1
f 66/111/1 150/107/1 65/106/1
f 5/110/1 110/112/1 111/108/1
f 6/113/1 110/112/1 5/110/1
f 6/113/1 109/114/1 110/112/1
f 67/115/1 150/107/1 66/111/1
f 7/116/1 109/114/1 6/113/1
f 67/115/1 149/117/1 150/107/1
f 114/118/1 13/100/1 150/107/1
f 8/119/1 109/114/1 7/116/1
f 8/119/1 108/120/1 109/114/1
f 68/121/1 149/117/1 67/115/1
f 68/121/1 148/122/1 149/117/1
f 9/123/1 108/120/1 8/119/1
f 68/121/1 147/124/1 148/122/1
f 9/123/1 107/125/1 108/120/1
f 69/126/1 147/124/1 68/121/1
f 10/127/1 107/125/1 9/123/1
f 69/126/1 146/128/1 147/124/1
f 11/129/1 107/125/1 10/127/1
f 11/129/1 106/130/1 107/125/1
f 70/131/1 146/128/1 69/126/1
f 12/132/1 106/130/1 11/129/1
f 70/131/1 145/133/1 146/128/1
f 13/100/1 106/130/1 12/132/1
f 13/100/1 105/134/1 106/130/1
f 70/131/1 144/135/1 145/133/1
f 71/136/1 144/135/1 70/131/1
f 114/118/1 105/134/1 13/100/1
f 71/136/1 143/137/1 144/135/1
f 114/118/1 104/138/1 105/134/1
f 71/136/1 142/139/1 143/137/1
f 72/140/1 142/139/1 71/136/1
f 114/118/1 103/141/1 104/138/1
f 72/140/1 141/142/1 142/139/1
f 73/143/1 141/142/1 72/140/1
f 73/143/1 140/144/1 141/142/1
f 114/118/1 102/145/1 103/141/1
f 73/143/1 139/146/1 140/144/1
f 114/118/1 101/147/1 102/145/1
f 74/148/1 139/146/1 73/143/1
f 74/148/1 138/149/1 139/146/1
f 115/150/1 101/147/1 114/118/1
f 115/150/1 100/151/1 101/147/1
f 75/152/1 138/149/1 74/148/1
f 75/152/1 137/153/1 138/149/1
f 116/154/1 100/151/1 115/150/1
f 75/152/1 136/155/1 137/153/1
f 117/156/1 98/157/1 116/154/1
f 98/157/1 100/151/1 116/154/1
f 75/152/1 135/158/1 136/155/1
f 76/159/1 135/158/1 75/152/1
f 118/160/1 98/157/1 117/156/1
f 76/159/1 134/161/1 135/158/1
f 119/162/1 98/157/1 118/160/1
f 76/159/1 133/163/1 134/161/1
f 120/164/1 98/157/1 119/162/1
f 77/165/1 133/163/1 76/159/1
f 77/165/1 132/166/1 133/163/1
f 121/167/1 98/157/1 120/164/1
f 77/165/1 131/168/1 132/166/1
f 122/169/1 98/157/1 121/167/1
f 77/165/1 130/170/1 131/168/1
f 122/169/1 97/171/1 98/157/1
f 99/172/1 100/151/1 98/157/1
f 123/173/1 97/171/1 122/169/1
f 77/165/1 129/174/1 130/170/1
f 78/175/1 129/174/1 77/165/1
f 124/176/1 97/171/1 123/173/1
f 78/175/1 128/177/1 129/174/1
f 125/178/1 97/171/1 124/176/1
f 78/175/1 127/179/1 128/177/1
f 126/180/1 97/171/1 125/178/1
f 78/175/1 126/180/1 127/179/1
f 78/175/1 97/171/1 126/180/1
f 78/175/1 96/181/1 97/171/1
f 79/182/1 96/181/1 78/175/1
f 79/182/1 95/183/1 96/181/1
f 80/184/1 95/183/1 79/182/1
f 80/184/1 94/185/1 95/183/1
f 81/186/1 94/185/1 80/184/1
f 81/186/1 93/187/1 94/185/1
f 82/188/1 93/187/1 81/186/1
f 82/188/1 92/189/1 93/187/1
f 82/188/1 91/190/1 92/189/1
f 83/191/1 91/190/1 82/188/1
f 83/191/1 90/192/1 91/190/1
f 84/193/1 90/192/1 83/191/1
f 84/193/1 89/194/1 90/192/1
f 85/195/1 89/194/1 84/193/1
f 85/195/1 88/196/1 89/194/1
f 85/195/1 87/197/1 88/196/1
f 86/198/1 87/197/1 85/195/1
