# Blender v3.4.1 OBJ File: 'letters-generator.blend'
# www.blender.org
o Text.128_Font_Curve.136
v 0.025000 0.000000 -0.198000
v 0.036942 0.000000 -0.207091
v 0.048782 0.000000 -0.215810
v 0.060547 0.000000 -0.224078
v 0.072259 0.000000 -0.231815
v 0.083944 0.000000 -0.238940
v 0.095625 0.000000 -0.245375
v 0.107327 0.000000 -0.251039
v 0.119074 0.000000 -0.255852
v 0.130891 0.000000 -0.259734
v 0.142801 0.000000 -0.262606
v 0.154829 0.000000 -0.264388
v 0.167000 0.000000 -0.265000
v 0.176352 0.000000 -0.264615
v 0.185898 0.000000 -0.263505
v 0.195625 0.000000 -0.261734
v 0.205519 0.000000 -0.259370
v 0.215565 0.000000 -0.256479
v 0.225750 0.000000 -0.253125
v 0.236060 0.000000 -0.249376
v 0.246481 0.000000 -0.245296
v 0.257000 0.000000 -0.240953
v 0.267602 0.000000 -0.236412
v 0.278273 0.000000 -0.231739
v 0.289000 0.000000 -0.227000
v 0.299538 0.000000 -0.222261
v 0.310134 0.000000 -0.217588
v 0.320766 0.000000 -0.213047
v 0.331407 0.000000 -0.208704
v 0.342035 0.000000 -0.204624
v 0.352625 0.000000 -0.200875
v 0.363152 0.000000 -0.197521
v 0.373593 0.000000 -0.194630
v 0.383922 0.000000 -0.192266
v 0.394116 0.000000 -0.190495
v 0.404150 0.000000 -0.189385
v 0.414000 0.000000 -0.189000
v 0.427013 0.000000 -0.189591
v 0.440023 0.000000 -0.191310
v 0.452984 0.000000 -0.194078
v 0.465852 0.000000 -0.197815
v 0.478581 0.000000 -0.202440
v 0.491125 0.000000 -0.207875
v 0.503440 0.000000 -0.214039
v 0.515482 0.000000 -0.220852
v 0.527203 0.000000 -0.228234
v 0.538560 0.000000 -0.236106
v 0.549508 0.000000 -0.244388
v 0.560000 0.000000 -0.253000
v 0.560000 0.000000 -0.336000
v 0.549053 0.000000 -0.327329
v 0.537755 0.000000 -0.318884
v 0.526172 0.000000 -0.310766
v 0.514370 0.000000 -0.303074
v 0.502416 0.000000 -0.295910
v 0.490375 0.000000 -0.289375
v 0.478313 0.000000 -0.283569
v 0.466296 0.000000 -0.278593
v 0.454391 0.000000 -0.274547
v 0.442662 0.000000 -0.271532
v 0.431177 0.000000 -0.269650
v 0.420000 0.000000 -0.269000
v 0.410668 0.000000 -0.269385
v 0.401181 0.000000 -0.270495
v 0.391547 0.000000 -0.272266
v 0.381778 0.000000 -0.274630
v 0.371884 0.000000 -0.277521
v 0.361875 0.000000 -0.280875
v 0.351762 0.000000 -0.284624
v 0.341556 0.000000 -0.288704
v 0.331266 0.000000 -0.293047
v 0.320903 0.000000 -0.297588
v 0.310477 0.000000 -0.302261
v 0.300000 0.000000 -0.307000
v 0.289481 0.000000 -0.311739
v 0.278931 0.000000 -0.316412
v 0.268359 0.000000 -0.320953
v 0.257778 0.000000 -0.325296
v 0.247196 0.000000 -0.329376
v 0.236625 0.000000 -0.333125
v 0.226075 0.000000 -0.336479
v 0.215556 0.000000 -0.339370
v 0.205078 0.000000 -0.341734
v 0.194653 0.000000 -0.343505
v 0.184290 0.000000 -0.344615
v 0.174000 0.000000 -0.345000
v 0.160546 0.000000 -0.344428
v 0.147199 0.000000 -0.342759
v 0.133984 0.000000 -0.340063
v 0.120926 0.000000 -0.336407
v 0.108048 0.000000 -0.331863
v 0.095375 0.000000 -0.326500
v 0.082931 0.000000 -0.320387
v 0.070741 0.000000 -0.313593
v 0.058828 0.000000 -0.306187
v 0.047218 0.000000 -0.298241
v 0.035933 0.000000 -0.289822
v 0.025000 0.000000 -0.281000
vt 0.886598 0.000000
vt 0.865979 0.000000
vt 0.876289 0.000000
vt 0.855670 0.000000
vt 0.896907 0.000000
vt 0.845361 0.000000
vt 0.907216 0.000000
vt 0.835052 0.000000
vt 0.917526 0.000000
vt 0.824742 0.000000
vt 0.814433 0.000000
vt 0.927835 0.000000
vt 0.515464 0.000000
vt 0.494845 0.000000
vt 0.505155 0.000000
vt 0.804124 0.000000
vt 0.938144 0.000000
vt 0.793814 0.000000
vt 0.525773 0.000000
vt 0.948454 0.000000
vt 0.783505 0.000000
vt 0.773196 0.000000
vt 0.958763 0.000000
vt 0.536082 0.000000
vt 0.762887 0.000000
vt 0.969072 0.000000
vt 0.752577 0.000000
vt 0.546392 0.000000
vt 0.742268 0.000000
vt 0.979381 0.000000
vt 0.556701 0.000000
vt 0.731959 0.000000
vt 0.989691 0.000000
vt 0.721649 0.000000
vt 0.567010 0.000000
vt 0.711340 0.000000
vt 1.000000 0.000000
vt 0.577320 0.000000
vt 0.701031 0.000000
vt 0.690722 0.000000
vt 0.587629 0.000000
vt 0.000000 0.000000
vt 0.010309 0.000000
vt 0.020619 0.000000
vt 0.030928 0.000000
vt 0.041237 0.000000
vt 0.051546 0.000000
vt 0.061856 0.000000
vt 0.072165 0.000000
vt 0.082474 0.000000
vt 0.092784 0.000000
vt 0.103093 0.000000
vt 0.113402 0.000000
vt 0.680412 0.000000
vt 0.597938 0.000000
vt 0.123711 0.000000
vt 0.670103 0.000000
vt 0.659794 0.000000
vt 0.608247 0.000000
vt 0.649485 0.000000
vt 0.618557 0.000000
vt 0.639175 0.000000
vt 0.628866 0.000000
vt 0.134021 0.000000
vt 0.144330 0.000000
vt 0.154639 0.000000
vt 0.164948 0.000000
vt 0.175258 0.000000
vt 0.185567 0.000000
vt 0.195876 0.000000
vt 0.484536 0.000000
vt 0.206186 0.000000
vt 0.216495 0.000000
vt 0.474227 0.000000
vt 0.226804 0.000000
vt 0.237113 0.000000
vt 0.463918 0.000000
vt 0.247423 0.000000
vt 0.453608 0.000000
vt 0.257732 0.000000
vt 0.268041 0.000000
vt 0.443299 0.000000
vt 0.278351 0.000000
vt 0.432990 0.000000
vt 0.288660 0.000000
vt 0.298969 0.000000
vt 0.422680 0.000000
vt 0.309278 0.000000
vt 0.412371 0.000000
vt 0.319588 0.000000
vt 0.402062 0.000000
vt 0.329897 0.000000
vt 0.340206 0.000000
vt 0.391753 0.000000
vt 0.350515 0.000000
vt 0.381443 0.000000
vt 0.360825 0.000000
vt 0.371134 0.000000
vn 0.0000 1.0000 0.0000
s off
f 87/1/1 85/2/1 86/3/1
f 87/1/1 84/4/1 85/2/1
f 88/5/1 84/4/1 87/1/1
f 88/5/1 83/6/1 84/4/1
f 89/7/1 83/6/1 88/5/1
f 89/7/1 82/8/1 83/6/1
f 90/9/1 82/8/1 89/7/1
f 90/9/1 81/10/1 82/8/1
f 90/9/1 80/11/1 81/10/1
f 91/12/1 80/11/1 90/9/1
f 51/13/1 49/14/1 50/15/1
f 91/12/1 79/16/1 80/11/1
f 92/17/1 79/16/1 91/12/1
f 92/17/1 78/18/1 79/16/1
f 52/19/1 49/14/1 51/13/1
f 93/20/1 78/18/1 92/17/1
f 93/20/1 77/21/1 78/18/1
f 93/20/1 76/22/1 77/21/1
f 94/23/1 76/22/1 93/20/1
f 53/24/1 49/14/1 52/19/1
f 94/23/1 75/25/1 76/22/1
f 95/26/1 75/25/1 94/23/1
f 95/26/1 74/27/1 75/25/1
f 54/28/1 49/14/1 53/24/1
f 95/26/1 73/29/1 74/27/1
f 96/30/1 73/29/1 95/26/1
f 55/31/1 49/14/1 54/28/1
f 96/30/1 72/32/1 73/29/1
f 97/33/1 72/32/1 96/30/1
f 97/33/1 71/34/1 72/32/1
f 56/35/1 49/14/1 55/31/1
f 97/33/1 70/36/1 71/34/1
f 98/37/1 70/36/1 97/33/1
f 57/38/1 49/14/1 56/35/1
f 98/37/1 69/39/1 70/36/1
f 98/37/1 68/40/1 69/39/1
f 58/41/1 49/14/1 57/38/1
f 1/42/1 2/43/1 98/37/1
f 2/43/1 3/44/1 98/37/1
f 3/44/1 4/45/1 98/37/1
f 4/45/1 5/46/1 98/37/1
f 5/46/1 6/47/1 98/37/1
f 6/47/1 7/48/1 98/37/1
f 7/48/1 8/49/1 98/37/1
f 8/49/1 9/50/1 98/37/1
f 9/50/1 10/51/1 98/37/1
f 10/51/1 11/52/1 98/37/1
f 11/52/1 12/53/1 98/37/1
f 12/53/1 68/40/1 98/37/1
f 12/53/1 67/54/1 68/40/1
f 59/55/1 49/14/1 58/41/1
f 12/53/1 13/56/1 67/54/1
f 13/56/1 66/57/1 67/54/1
f 13/56/1 65/58/1 66/57/1
f 60/59/1 49/14/1 59/55/1
f 13/56/1 64/60/1 65/58/1
f 61/61/1 49/14/1 60/59/1
f 13/56/1 63/62/1 64/60/1
f 62/63/1 49/14/1 61/61/1
f 13/56/1 62/63/1 63/62/1
f 13/56/1 49/14/1 62/63/1
f 14/64/1 49/14/1 13/56/1
f 15/65/1 49/14/1 14/64/1
f 16/66/1 49/14/1 15/65/1
f 17/67/1 49/14/1 16/66/1
f 18/68/1 49/14/1 17/67/1
f 19/69/1 49/14/1 18/68/1
f 20/70/1 49/14/1 19/69/1
f 20/70/1 48/71/1 49/14/1
f 21/72/1 48/71/1 20/70/1
f 22/73/1 48/71/1 21/72/1
f 22/73/1 47/74/1 48/71/1
f 23/75/1 47/74/1 22/73/1
f 24/76/1 47/74/1 23/75/1
f 24/76/1 46/77/1 47/74/1
f 25/78/1 46/77/1 24/76/1
f 25/78/1 45/79/1 46/77/1
f 26/80/1 45/79/1 25/78/1
f 27/81/1 45/79/1 26/80/1
f 27/81/1 44/82/1 45/79/1
f 28/83/1 44/82/1 27/81/1
f 28/83/1 43/84/1 44/82/1
f 29/85/1 43/84/1 28/83/1
f 30/86/1 43/84/1 29/85/1
f 30/86/1 42/87/1 43/84/1
f 31/88/1 42/87/1 30/86/1
f 31/88/1 41/89/1 42/87/1
f 32/90/1 41/89/1 31/88/1
f 32/90/1 40/91/1 41/89/1
f 33/92/1 40/91/1 32/90/1
f 34/93/1 40/91/1 33/92/1
f 34/93/1 39/94/1 40/91/1
f 35/95/1 39/94/1 34/93/1
f 35/95/1 38/96/1 39/94/1
f 36/97/1 38/96/1 35/95/1
f 36/97/1 37/98/1 38/96/1
