# Blender v3.4.1 OBJ File: 'letters-generator.blend'
# www.blender.org
o Text.096_Font_Curve.104
v 0.116000 0.000000 -0.291000
v 0.234000 0.000000 -0.583000
v 0.354000 0.000000 -0.291000
v 0.443000 0.000000 -0.291000
v 0.270000 0.000000 -0.682000
v 0.199000 0.000000 -0.682000
v 0.026000 0.000000 -0.291000
vt 1.000000 0.000000
vt 0.666667 0.000000
vt 0.833333 0.000000
vt 0.166667 0.000000
vt 0.500000 0.000000
vt 0.000000 0.000000
vt 0.333333 0.000000
vn 0.0000 1.0000 0.0000
s off
f 7/1/1 5/2/1 6/3/1
f 7/1/1 2/4/1 5/2/1
f 2/4/1 4/5/1 5/2/1
f 7/1/1 1/6/1 2/4/1
f 3/7/1 4/5/1 2/4/1
