# Blender v3.4.1 OBJ File: 'letters-generator.blend'
# www.blender.org
o Text.095_Font_Curve.103
v 0.014000 0.000000 0.221000
v 0.247000 0.000000 0.221000
v 0.247000 0.000000 -0.682000
v 0.014000 0.000000 -0.682000
v 0.014000 0.000000 -0.602000
v 0.151000 0.000000 -0.602000
v 0.151000 0.000000 0.141000
v 0.014000 0.000000 0.141000
vt 0.571429 0.000000
vt 0.285714 0.000000
vt 0.428571 0.000000
vt 0.714286 0.000000
vt 0.142857 0.000000
vt 0.857143 0.000000
vt 0.000000 0.000000
vt 1.000000 0.000000
vn 0.0000 1.0000 0.0000
s off
f 5/1/1 3/2/1 4/3/1
f 5/1/1 6/4/1 3/2/1
f 6/4/1 2/5/1 3/2/1
f 7/6/1 2/5/1 6/4/1
f 1/7/1 7/6/1 8/8/1
f 1/7/1 2/5/1 7/6/1
