# Blender v3.4.1 OBJ File: 'letters-generator.blend'
# www.blender.org
o Text.066_Font_Curve.074
v 0.891000 0.000000 -0.009000
v 0.875066 0.000000 0.011538
v 0.856778 0.000000 0.031056
v 0.836156 0.000000 0.049406
v 0.813222 0.000000 0.066444
v 0.787997 0.000000 0.082024
v 0.760500 0.000000 0.096000
v 0.730753 0.000000 0.108226
v 0.698778 0.000000 0.118556
v 0.664594 0.000000 0.126844
v 0.628222 0.000000 0.132944
v 0.589684 0.000000 0.136712
v 0.549000 0.000000 0.138000
v 0.484608 0.000000 0.135148
v 0.425032 0.000000 0.126681
v 0.370422 0.000000 0.112734
v 0.320926 0.000000 0.093444
v 0.276694 0.000000 0.068946
v 0.237875 0.000000 0.039375
v 0.204619 0.000000 0.004866
v 0.177074 0.000000 -0.034444
v 0.155391 0.000000 -0.078422
v 0.139718 0.000000 -0.126931
v 0.130204 0.000000 -0.179835
v 0.127000 0.000000 -0.237000
v 0.130520 0.000000 -0.296120
v 0.140824 0.000000 -0.352213
v 0.157531 0.000000 -0.404875
v 0.180259 0.000000 -0.453704
v 0.208626 0.000000 -0.498296
v 0.242250 0.000000 -0.538250
v 0.280749 0.000000 -0.573162
v 0.323741 0.000000 -0.602630
v 0.370844 0.000000 -0.626250
v 0.421676 0.000000 -0.643620
v 0.475855 0.000000 -0.654338
v 0.533000 0.000000 -0.658000
v 0.582111 0.000000 -0.655300
v 0.628718 0.000000 -0.647403
v 0.672484 0.000000 -0.634609
v 0.713074 0.000000 -0.617222
v 0.750150 0.000000 -0.595543
v 0.783375 0.000000 -0.569875
v 0.812413 0.000000 -0.540519
v 0.836926 0.000000 -0.507778
v 0.856578 0.000000 -0.471953
v 0.871032 0.000000 -0.433347
v 0.879952 0.000000 -0.392262
v 0.883000 0.000000 -0.349000
v 0.880085 0.000000 -0.305645
v 0.871926 0.000000 -0.266079
v 0.859406 0.000000 -0.230297
v 0.843407 0.000000 -0.198296
v 0.824811 0.000000 -0.170074
v 0.804500 0.000000 -0.145625
v 0.783355 0.000000 -0.124947
v 0.762259 0.000000 -0.108037
v 0.742094 0.000000 -0.094891
v 0.723741 0.000000 -0.085505
v 0.708082 0.000000 -0.079876
v 0.696000 0.000000 -0.078000
v 0.688916 0.000000 -0.078493
v 0.682657 0.000000 -0.079944
v 0.677219 0.000000 -0.082313
v 0.672593 0.000000 -0.085556
v 0.668772 0.000000 -0.089632
v 0.665750 0.000000 -0.094500
v 0.663520 0.000000 -0.100118
v 0.662074 0.000000 -0.106444
v 0.661406 0.000000 -0.113438
v 0.661509 0.000000 -0.121056
v 0.662376 0.000000 -0.129257
v 0.664000 0.000000 -0.138000
v 0.746000 0.000000 -0.515000
v 0.658000 0.000000 -0.515000
v 0.641000 0.000000 -0.439000
v 0.631901 0.000000 -0.452955
v 0.622125 0.000000 -0.465806
v 0.611703 0.000000 -0.477531
v 0.600667 0.000000 -0.488111
v 0.589047 0.000000 -0.497524
v 0.576875 0.000000 -0.505750
v 0.564182 0.000000 -0.512767
v 0.551000 0.000000 -0.518556
v 0.537359 0.000000 -0.523094
v 0.523292 0.000000 -0.526361
v 0.508828 0.000000 -0.528337
v 0.494000 0.000000 -0.529000
v 0.462113 0.000000 -0.525899
v 0.430741 0.000000 -0.516944
v 0.400313 0.000000 -0.502656
v 0.371259 0.000000 -0.483556
v 0.344012 0.000000 -0.460163
v 0.319000 0.000000 -0.433000
v 0.296655 0.000000 -0.402587
v 0.277407 0.000000 -0.369444
v 0.261688 0.000000 -0.334094
v 0.249926 0.000000 -0.297056
v 0.242553 0.000000 -0.258851
v 0.240000 0.000000 -0.220000
v 0.241555 0.000000 -0.188763
v 0.246106 0.000000 -0.159185
v 0.253484 0.000000 -0.131469
v 0.263519 0.000000 -0.105815
v 0.276039 0.000000 -0.082425
v 0.290875 0.000000 -0.061500
v 0.307857 0.000000 -0.043242
v 0.326815 0.000000 -0.027852
v 0.347578 0.000000 -0.015531
v 0.369977 0.000000 -0.006481
v 0.393841 0.000000 -0.000904
v 0.419000 0.000000 0.001000
v 0.431365 0.000000 0.000380
v 0.443921 0.000000 -0.001458
v 0.456609 0.000000 -0.004484
v 0.469370 0.000000 -0.008667
v 0.482145 0.000000 -0.013974
v 0.494875 0.000000 -0.020375
v 0.507501 0.000000 -0.027839
v 0.519963 0.000000 -0.036333
v 0.532203 0.000000 -0.045828
v 0.544162 0.000000 -0.056292
v 0.555781 0.000000 -0.067693
v 0.567000 0.000000 -0.080000
v 0.567686 0.000000 -0.066833
v 0.569741 0.000000 -0.054829
v 0.573156 0.000000 -0.043984
v 0.577926 0.000000 -0.034296
v 0.584043 0.000000 -0.025761
v 0.591500 0.000000 -0.018375
v 0.600291 0.000000 -0.012135
v 0.610407 0.000000 -0.007037
v 0.621844 0.000000 -0.003078
v 0.634593 0.000000 -0.000255
v 0.648647 0.000000 0.001437
v 0.664000 0.000000 0.002000
v 0.701046 0.000000 -0.001487
v 0.737366 0.000000 -0.011565
v 0.772484 0.000000 -0.027656
v 0.805926 0.000000 -0.049185
v 0.837215 0.000000 -0.075575
v 0.865875 0.000000 -0.106250
v 0.891431 0.000000 -0.140633
v 0.913407 0.000000 -0.178148
v 0.931328 0.000000 -0.218219
v 0.944718 0.000000 -0.260269
v 0.953100 0.000000 -0.303721
v 0.956000 0.000000 -0.348000
v 0.952396 0.000000 -0.401922
v 0.941838 0.000000 -0.452958
v 0.924703 0.000000 -0.500766
v 0.901370 0.000000 -0.545000
v 0.872218 0.000000 -0.585318
v 0.837625 0.000000 -0.621375
v 0.797969 0.000000 -0.652828
v 0.753630 0.000000 -0.679333
v 0.704984 0.000000 -0.700547
v 0.652412 0.000000 -0.716125
v 0.596291 0.000000 -0.725724
v 0.537000 0.000000 -0.729000
v 0.453552 0.000000 -0.723192
v 0.379000 0.000000 -0.706616
v 0.313031 0.000000 -0.680547
v 0.255333 0.000000 -0.646259
v 0.205594 0.000000 -0.605027
v 0.163500 0.000000 -0.558125
v 0.128740 0.000000 -0.506827
v 0.101000 0.000000 -0.452407
v 0.079969 0.000000 -0.396141
v 0.065333 0.000000 -0.339301
v 0.056781 0.000000 -0.283163
v 0.054000 0.000000 -0.229000
v 0.057857 0.000000 -0.163013
v 0.069273 0.000000 -0.101690
v 0.088016 0.000000 -0.045234
v 0.113852 0.000000 0.006148
v 0.146549 0.000000 0.052253
v 0.185875 0.000000 0.092875
v 0.231597 0.000000 0.127810
v 0.283481 0.000000 0.156852
v 0.341297 0.000000 0.179797
v 0.404810 0.000000 0.196440
v 0.473789 0.000000 0.206576
v 0.548000 0.000000 0.210000
v 0.597502 0.000000 0.208422
v 0.644519 0.000000 0.203708
v 0.689063 0.000000 0.195891
v 0.731148 0.000000 0.185000
v 0.770789 0.000000 0.171068
v 0.808000 0.000000 0.154125
v 0.842794 0.000000 0.134203
v 0.875185 0.000000 0.111333
v 0.905187 0.000000 0.085547
v 0.932815 0.000000 0.056875
v 0.958081 0.000000 0.025349
v 0.981000 0.000000 -0.009000
v 0.331000 0.000000 -0.213000
v 0.332683 0.000000 -0.244079
v 0.337546 0.000000 -0.274551
v 0.345313 0.000000 -0.304016
v 0.355704 0.000000 -0.332074
v 0.368442 0.000000 -0.358327
v 0.383250 0.000000 -0.382375
v 0.399850 0.000000 -0.403819
v 0.417963 0.000000 -0.422259
v 0.437313 0.000000 -0.437297
v 0.457620 0.000000 -0.448532
v 0.478609 0.000000 -0.455567
v 0.500000 0.000000 -0.458000
v 0.516718 0.000000 -0.456868
v 0.532329 0.000000 -0.453523
v 0.546766 0.000000 -0.448047
v 0.559963 0.000000 -0.440519
v 0.571855 0.000000 -0.431018
v 0.582375 0.000000 -0.419625
v 0.591458 0.000000 -0.406420
v 0.599037 0.000000 -0.391481
v 0.605047 0.000000 -0.374891
v 0.609421 0.000000 -0.356727
v 0.612094 0.000000 -0.337070
v 0.613000 0.000000 -0.316000
v 0.611238 0.000000 -0.285341
v 0.606153 0.000000 -0.255144
v 0.598047 0.000000 -0.225828
v 0.587222 0.000000 -0.197815
v 0.573981 0.000000 -0.171524
v 0.558625 0.000000 -0.147375
v 0.541457 0.000000 -0.125789
v 0.522778 0.000000 -0.107185
v 0.502891 0.000000 -0.091984
v 0.482097 0.000000 -0.080607
v 0.460700 0.000000 -0.073472
v 0.439000 0.000000 -0.071000
v 0.423431 0.000000 -0.072171
v 0.408778 0.000000 -0.075616
v 0.395125 0.000000 -0.081234
v 0.382556 0.000000 -0.088926
v 0.371153 0.000000 -0.098590
v 0.361000 0.000000 -0.110125
v 0.352181 0.000000 -0.123431
v 0.344778 0.000000 -0.138407
v 0.338875 0.000000 -0.154953
v 0.334556 0.000000 -0.172968
v 0.331903 0.000000 -0.192350
vt 0.658436 0.000000
vt 0.650206 0.000000
vt 0.654321 0.000000
vt 0.646091 0.000000
vt 0.662551 0.000000
vt 0.641975 0.000000
vt 0.666667 0.000000
vt 0.637860 0.000000
vt 0.670782 0.000000
vt 0.148148 0.000000
vt 0.633745 0.000000
vt 0.144033 0.000000
vt 0.152263 0.000000
vt 0.156379 0.000000
vt 0.139918 0.000000
vt 0.629630 0.000000
vt 0.160494 0.000000
vt 0.674897 0.000000
vt 0.135802 0.000000
vt 0.164609 0.000000
vt 0.131687 0.000000
vt 0.625514 0.000000
vt 0.168724 0.000000
vt 0.679012 0.000000
vt 0.127572 0.000000
vt 0.172840 0.000000
vt 0.621399 0.000000
vt 0.123457 0.000000
vt 0.176955 0.000000
vt 0.683128 0.000000
vt 0.617284 0.000000
vt 0.181070 0.000000
vt 0.119342 0.000000
vt 0.362140 0.000000
vt 0.353909 0.000000
vt 0.358025 0.000000
vt 0.349794 0.000000
vt 0.345679 0.000000
vt 0.366255 0.000000
vt 0.341564 0.000000
vt 0.337449 0.000000
vt 0.370370 0.000000
vt 0.308642 0.000000
vt 0.300412 0.000000
vt 0.304527 0.000000
vt 0.296296 0.000000
vt 0.333333 0.000000
vt 0.185185 0.000000
vt 0.687243 0.000000
vt 0.329218 0.000000
vt 0.374486 0.000000
vt 0.613169 0.000000
vt 0.115226 0.000000
vt 0.325103 0.000000
vt 0.320988 0.000000
vt 0.378601 0.000000
vt 0.316872 0.000000
vt 0.189300 0.000000
vt 0.855967 0.000000
vt 0.312757 0.000000
vt 0.382716 0.000000
vt 0.851852 0.000000
vt 0.860082 0.000000
vt 0.864198 0.000000
vt 0.847737 0.000000
vt 0.111111 0.000000
vt 0.868313 0.000000
vt 0.609053 0.000000
vt 0.691358 0.000000
vt 0.843621 0.000000
vt 0.872428 0.000000
vt 0.876543 0.000000
vt 0.880658 0.000000
vt 0.884774 0.000000
vt 0.888889 0.000000
vt 0.893004 0.000000
vt 0.839506 0.000000
vt 0.193416 0.000000
vt 0.386831 0.000000
vt 0.835391 0.000000
vt 0.106996 0.000000
vt 0.831276 0.000000
vt 0.390947 0.000000
vt 0.604938 0.000000
vt 0.695473 0.000000
vt 0.197531 0.000000
vt 0.827160 0.000000
vt 0.897119 0.000000
vt 0.395062 0.000000
vt 0.823045 0.000000
vt 0.901235 0.000000
vt 0.102881 0.000000
vt 0.201646 0.000000
vt 0.600823 0.000000
vt 0.699588 0.000000
vt 0.905350 0.000000
vt 0.399177 0.000000
vt 0.818930 0.000000
vt 0.909465 0.000000
vt 0.205761 0.000000
vt 0.814815 0.000000
vt 0.596708 0.000000
vt 0.403292 0.000000
vt 0.098765 0.000000
vt 0.913580 0.000000
vt 0.703704 0.000000
vt 0.810700 0.000000
vt 0.209877 0.000000
vt 0.592593 0.000000
vt 0.407407 0.000000
vt 0.917695 0.000000
vt 0.806584 0.000000
vt 0.094650 0.000000
vt 0.213992 0.000000
vt 0.707819 0.000000
vt 0.921811 0.000000
vt 0.411523 0.000000
vt 0.588477 0.000000
vt 1.000000 0.000000
vt 0.218107 0.000000
vt 0.925926 0.000000
vt 0.995885 0.000000
vt 0.415638 0.000000
vt 0.090535 0.000000
vt 0.584362 0.000000
vt 0.991770 0.000000
vt 0.930041 0.000000
vt 0.222222 0.000000
vt 0.711934 0.000000
vt 0.419753 0.000000
vt 0.987654 0.000000
vt 0.934156 0.000000
vt 0.226337 0.000000
vt 0.580247 0.000000
vt 0.983539 0.000000
vt 0.292181 0.000000
vt 0.423868 0.000000
vt 0.288066 0.000000
vt 0.086420 0.000000
vt 0.938272 0.000000
vt 0.230453 0.000000
vt 0.979424 0.000000
vt 0.283951 0.000000
vt 0.279835 0.000000
vt 0.975309 0.000000
vt 0.234568 0.000000
vt 0.942387 0.000000
vt 0.275720 0.000000
vt 0.576132 0.000000
vt 0.427984 0.000000
vt 0.716049 0.000000
vt 0.271605 0.000000
vt 0.971193 0.000000
vt 0.238683 0.000000
vt 0.267490 0.000000
vt 0.946502 0.000000
vt 0.263374 0.000000
vt 0.967078 0.000000
vt 0.259259 0.000000
vt 0.242798 0.000000
vt 0.432099 0.000000
vt 0.255144 0.000000
vt 0.962963 0.000000
vt 0.950617 0.000000
vt 0.506173 0.000000
vt 0.502058 0.000000
vt 0.510288 0.000000
vt 0.251029 0.000000
vt 0.246914 0.000000
vt 0.082305 0.000000
vt 0.958848 0.000000
vt 0.572016 0.000000
vt 0.954733 0.000000
vt 0.497942 0.000000
vt 0.514403 0.000000
vt 0.436214 0.000000
vt 0.493827 0.000000
vt 0.518519 0.000000
vt 0.567901 0.000000
vt 0.489712 0.000000
vt 0.720165 0.000000
vt 0.522634 0.000000
vt 0.440329 0.000000
vt 0.485597 0.000000
vt 0.078189 0.000000
vt 0.526749 0.000000
vt 0.444444 0.000000
vt 0.481481 0.000000
vt 0.563786 0.000000
vt 0.530864 0.000000
vt 0.477366 0.000000
vt 0.534979 0.000000
vt 0.448560 0.000000
vt 0.473251 0.000000
vt 0.539095 0.000000
vt 0.559671 0.000000
vt 0.004115 0.000000
vt 0.802469 0.000000
vt 0.000000 0.000000
vt 0.798354 0.000000
vt 0.469136 0.000000
vt 0.543210 0.000000
vt 0.452675 0.000000
vt 0.465021 0.000000
vt 0.547325 0.000000
vt 0.555556 0.000000
vt 0.460905 0.000000
vt 0.456790 0.000000
vt 0.551440 0.000000
vt 0.074074 0.000000
vt 0.724280 0.000000
vt 0.008230 0.000000
vt 0.794239 0.000000
vt 0.012346 0.000000
vt 0.069959 0.000000
vt 0.016461 0.000000
vt 0.728395 0.000000
vt 0.790123 0.000000
vt 0.020576 0.000000
vt 0.065844 0.000000
vt 0.024691 0.000000
vt 0.786008 0.000000
vt 0.732510 0.000000
vt 0.061728 0.000000
vt 0.028807 0.000000
vt 0.032922 0.000000
vt 0.781893 0.000000
vt 0.057613 0.000000
vt 0.037037 0.000000
vt 0.053498 0.000000
vt 0.041152 0.000000
vt 0.736625 0.000000
vt 0.045267 0.000000
vt 0.777778 0.000000
vt 0.049383 0.000000
vt 0.773663 0.000000
vt 0.740741 0.000000
vt 0.769547 0.000000
vt 0.744856 0.000000
vt 0.765432 0.000000
vt 0.761317 0.000000
vt 0.748971 0.000000
vt 0.757202 0.000000
vt 0.753086 0.000000
vn 0.0000 1.0000 0.0000
s off
f 161/1/1 159/2/1 160/3/1
f 161/1/1 158/4/1 159/2/1
f 162/5/1 158/4/1 161/1/1
f 162/5/1 157/6/1 158/4/1
f 163/7/1 157/6/1 162/5/1
f 163/7/1 156/8/1 157/6/1
f 164/9/1 156/8/1 163/7/1
f 164/9/1 37/10/1 156/8/1
f 37/10/1 155/11/1 156/8/1
f 164/9/1 36/12/1 37/10/1
f 38/13/1 155/11/1 37/10/1
f 39/14/1 155/11/1 38/13/1
f 164/9/1 35/15/1 36/12/1
f 39/14/1 154/16/1 155/11/1
f 40/17/1 154/16/1 39/14/1
f 165/18/1 35/15/1 164/9/1
f 165/18/1 34/19/1 35/15/1
f 41/20/1 154/16/1 40/17/1
f 165/18/1 33/21/1 34/19/1
f 41/20/1 153/22/1 154/16/1
f 42/23/1 153/22/1 41/20/1
f 166/24/1 33/21/1 165/18/1
f 166/24/1 32/25/1 33/21/1
f 43/26/1 153/22/1 42/23/1
f 43/26/1 152/27/1 153/22/1
f 166/24/1 31/28/1 32/25/1
f 44/29/1 152/27/1 43/26/1
f 167/30/1 31/28/1 166/24/1
f 44/29/1 151/31/1 152/27/1
f 45/32/1 151/31/1 44/29/1
f 167/30/1 30/33/1 31/28/1
f 89/34/1 87/35/1 88/36/1
f 89/34/1 86/37/1 87/35/1
f 89/34/1 85/38/1 86/37/1
f 90/39/1 85/38/1 89/34/1
f 90/39/1 84/40/1 85/38/1
f 90/39/1 83/41/1 84/40/1
f 91/42/1 83/41/1 90/39/1
f 76/43/1 74/44/1 75/45/1
f 76/43/1 73/46/1 74/44/1
f 91/42/1 82/47/1 83/41/1
f 46/48/1 151/31/1 45/32/1
f 168/49/1 30/33/1 167/30/1
f 91/42/1 81/50/1 82/47/1
f 92/51/1 81/50/1 91/42/1
f 46/48/1 150/52/1 151/31/1
f 168/49/1 29/53/1 30/33/1
f 92/51/1 80/54/1 81/50/1
f 92/51/1 79/55/1 80/54/1
f 93/56/1 79/55/1 92/51/1
f 93/56/1 78/57/1 79/55/1
f 47/58/1 150/52/1 46/48/1
f 93/56/1 209/59/1 78/57/1
f 209/59/1 77/60/1 78/57/1
f 94/61/1 208/62/1 93/56/1
f 208/62/1 209/59/1 93/56/1
f 210/63/1 77/60/1 209/59/1
f 211/64/1 77/60/1 210/63/1
f 94/61/1 207/65/1 208/62/1
f 168/49/1 28/66/1 29/53/1
f 212/67/1 77/60/1 211/64/1
f 47/58/1 149/68/1 150/52/1
f 212/67/1 76/43/1 77/60/1
f 169/69/1 28/66/1 168/49/1
f 94/61/1 206/70/1 207/65/1
f 213/71/1 76/43/1 212/67/1
f 214/72/1 76/43/1 213/71/1
f 214/72/1 215/73/1 76/43/1
f 215/73/1 216/74/1 76/43/1
f 216/74/1 217/75/1 76/43/1
f 217/75/1 218/76/1 76/43/1
f 218/76/1 73/46/1 76/43/1
f 94/61/1 205/77/1 206/70/1
f 48/78/1 149/68/1 47/58/1
f 95/79/1 205/77/1 94/61/1
f 95/79/1 204/80/1 205/77/1
f 169/69/1 27/81/1 28/66/1
f 95/79/1 203/82/1 204/80/1
f 96/83/1 203/82/1 95/79/1
f 48/78/1 148/84/1 149/68/1
f 170/85/1 27/81/1 169/69/1
f 49/86/1 148/84/1 48/78/1
f 96/83/1 202/87/1 203/82/1
f 219/88/1 73/46/1 218/76/1
f 97/89/1 202/87/1 96/83/1
f 97/89/1 201/90/1 202/87/1
f 220/91/1 73/46/1 219/88/1
f 170/85/1 26/92/1 27/81/1
f 50/93/1 148/84/1 49/86/1
f 50/93/1 147/94/1 148/84/1
f 171/95/1 26/92/1 170/85/1
f 221/96/1 73/46/1 220/91/1
f 98/97/1 201/90/1 97/89/1
f 98/97/1 200/98/1 201/90/1
f 222/99/1 73/46/1 221/96/1
f 51/100/1 147/94/1 50/93/1
f 98/97/1 199/101/1 200/98/1
f 51/100/1 146/102/1 147/94/1
f 99/103/1 199/101/1 98/97/1
f 171/95/1 25/104/1 26/92/1
f 223/105/1 73/46/1 222/99/1
f 172/106/1 25/104/1 171/95/1
f 99/103/1 198/107/1 199/101/1
f 52/108/1 146/102/1 51/100/1
f 52/108/1 145/109/1 146/102/1
f 100/110/1 198/107/1 99/103/1
f 224/111/1 73/46/1 223/105/1
f 100/110/1 197/112/1 198/107/1
f 172/106/1 24/113/1 25/104/1
f 53/114/1 145/109/1 52/108/1
f 173/115/1 24/113/1 172/106/1
f 225/116/1 73/46/1 224/111/1
f 101/117/1 197/112/1 100/110/1
f 53/114/1 144/118/1 145/109/1
f 101/117/1 244/119/1 197/112/1
f 54/120/1 144/118/1 53/114/1
f 226/121/1 73/46/1 225/116/1
f 101/117/1 243/122/1 244/119/1
f 102/123/1 243/122/1 101/117/1
f 173/115/1 23/124/1 24/113/1
f 54/120/1 143/125/1 144/118/1
f 102/123/1 242/126/1 243/122/1
f 227/127/1 73/46/1 226/121/1
f 55/128/1 143/125/1 54/120/1
f 174/129/1 23/124/1 173/115/1
f 103/130/1 242/126/1 102/123/1
f 103/130/1 241/131/1 242/126/1
f 228/132/1 73/46/1 227/127/1
f 56/133/1 143/125/1 55/128/1
f 56/133/1 142/134/1 143/125/1
f 103/130/1 240/135/1 241/131/1
f 228/132/1 72/136/1 73/46/1
f 104/137/1 240/135/1 103/130/1
f 228/132/1 71/138/1 72/136/1
f 174/129/1 22/139/1 23/124/1
f 229/140/1 71/138/1 228/132/1
f 57/141/1 142/134/1 56/133/1
f 104/137/1 239/142/1 240/135/1
f 229/140/1 70/143/1 71/138/1
f 229/140/1 69/144/1 70/143/1
f 104/137/1 238/145/1 239/142/1
f 58/146/1 142/134/1 57/141/1
f 230/147/1 69/144/1 229/140/1
f 230/147/1 68/148/1 69/144/1
f 58/146/1 141/149/1 142/134/1
f 105/150/1 238/145/1 104/137/1
f 175/151/1 22/139/1 174/129/1
f 230/147/1 67/152/1 68/148/1
f 105/150/1 237/153/1 238/145/1
f 59/154/1 141/149/1 58/146/1
f 230/147/1 66/155/1 67/152/1
f 231/156/1 66/155/1 230/147/1
f 231/156/1 65/157/1 66/155/1
f 105/150/1 236/158/1 237/153/1
f 231/156/1 64/159/1 65/157/1
f 60/160/1 141/149/1 59/154/1
f 106/161/1 236/158/1 105/150/1
f 231/156/1 63/162/1 64/159/1
f 106/161/1 235/163/1 236/158/1
f 232/164/1 124/165/1 231/156/1
f 124/165/1 63/162/1 231/156/1
f 232/164/1 123/166/1 124/165/1
f 125/167/1 63/162/1 124/165/1
f 125/167/1 62/168/1 63/162/1
f 61/169/1 141/149/1 60/160/1
f 125/167/1 61/169/1 62/168/1
f 175/151/1 21/170/1 22/139/1
f 125/167/1 141/149/1 61/169/1
f 106/161/1 234/171/1 235/163/1
f 125/167/1 140/172/1 141/149/1
f 233/173/1 123/166/1 232/164/1
f 106/161/1 233/173/1 234/171/1
f 106/161/1 123/166/1 233/173/1
f 106/161/1 122/174/1 123/166/1
f 126/175/1 140/172/1 125/167/1
f 107/176/1 122/174/1 106/161/1
f 107/176/1 121/177/1 122/174/1
f 127/178/1 140/172/1 126/175/1
f 127/178/1 139/179/1 140/172/1
f 107/176/1 120/180/1 121/177/1
f 176/181/1 21/170/1 175/151/1
f 128/182/1 139/179/1 127/178/1
f 108/183/1 120/180/1 107/176/1
f 108/183/1 119/184/1 120/180/1
f 176/181/1 20/185/1 21/170/1
f 129/186/1 139/179/1 128/182/1
f 109/187/1 119/184/1 108/183/1
f 109/187/1 118/188/1 119/184/1
f 129/186/1 138/189/1 139/179/1
f 130/190/1 138/189/1 129/186/1
f 109/187/1 117/191/1 118/188/1
f 131/192/1 138/189/1 130/190/1
f 110/193/1 117/191/1 109/187/1
f 110/193/1 116/194/1 117/191/1
f 132/195/1 138/189/1 131/192/1
f 132/195/1 137/196/1 138/189/1
f 2/197/1 196/198/1 1/199/1
f 2/197/1 195/200/1 196/198/1
f 110/193/1 115/201/1 116/194/1
f 133/202/1 137/196/1 132/195/1
f 111/203/1 115/201/1 110/193/1
f 111/203/1 114/204/1 115/201/1
f 134/205/1 137/196/1 133/202/1
f 134/205/1 136/206/1 137/196/1
f 111/203/1 113/207/1 114/204/1
f 112/208/1 113/207/1 111/203/1
f 135/209/1 136/206/1 134/205/1
f 176/181/1 19/210/1 20/185/1
f 177/211/1 19/210/1 176/181/1
f 3/212/1 195/200/1 2/197/1
f 3/212/1 194/213/1 195/200/1
f 4/214/1 194/213/1 3/212/1
f 177/211/1 18/215/1 19/210/1
f 5/216/1 194/213/1 4/214/1
f 178/217/1 18/215/1 177/211/1
f 5/216/1 193/218/1 194/213/1
f 6/219/1 193/218/1 5/216/1
f 178/217/1 17/220/1 18/215/1
f 7/221/1 193/218/1 6/219/1
f 7/221/1 192/222/1 193/218/1
f 179/223/1 17/220/1 178/217/1
f 179/223/1 16/224/1 17/220/1
f 8/225/1 192/222/1 7/221/1
f 9/226/1 192/222/1 8/225/1
f 9/226/1 191/227/1 192/222/1
f 179/223/1 15/228/1 16/224/1
f 10/229/1 191/227/1 9/226/1
f 179/223/1 14/230/1 15/228/1
f 11/231/1 191/227/1 10/229/1
f 180/232/1 14/230/1 179/223/1
f 12/233/1 191/227/1 11/231/1
f 12/233/1 190/234/1 191/227/1
f 180/232/1 13/235/1 14/230/1
f 13/235/1 190/234/1 12/233/1
f 180/232/1 190/234/1 13/235/1
f 180/232/1 189/236/1 190/234/1
f 181/237/1 189/236/1 180/232/1
f 181/237/1 188/238/1 189/236/1
f 182/239/1 188/238/1 181/237/1
f 182/239/1 187/240/1 188/238/1
f 182/239/1 186/241/1 187/240/1
f 183/242/1 186/241/1 182/239/1
f 183/242/1 185/243/1 186/241/1
f 184/244/1 185/243/1 183/242/1
