# Blender v3.4.1 OBJ File: 'letters-generator.blend'
# www.blender.org
o Text.065_Font_Curve.073
v 0.154000 0.000000 -0.111000
v 0.145887 0.000000 -0.110450
v 0.138097 0.000000 -0.108847
v 0.130703 0.000000 -0.106266
v 0.123778 0.000000 -0.102778
v 0.117394 0.000000 -0.098457
v 0.111625 0.000000 -0.093375
v 0.106543 0.000000 -0.087606
v 0.102222 0.000000 -0.081222
v 0.098734 0.000000 -0.074297
v 0.096153 0.000000 -0.066903
v 0.094550 0.000000 -0.059113
v 0.094000 0.000000 -0.051000
v 0.094550 0.000000 -0.042887
v 0.096153 0.000000 -0.035097
v 0.098734 0.000000 -0.027703
v 0.102222 0.000000 -0.020778
v 0.106543 0.000000 -0.014394
v 0.111625 0.000000 -0.008625
v 0.117394 0.000000 -0.003543
v 0.123778 0.000000 0.000778
v 0.130703 0.000000 0.004266
v 0.138097 0.000000 0.006847
v 0.145887 0.000000 0.008450
v 0.154000 0.000000 0.009000
v 0.162113 0.000000 0.008450
v 0.169903 0.000000 0.006847
v 0.177297 0.000000 0.004266
v 0.184222 0.000000 0.000778
v 0.190606 0.000000 -0.003543
v 0.196375 0.000000 -0.008625
v 0.201457 0.000000 -0.014394
v 0.205778 0.000000 -0.020778
v 0.209266 0.000000 -0.027703
v 0.211847 0.000000 -0.035097
v 0.213450 0.000000 -0.042887
v 0.214000 0.000000 -0.051000
v 0.213450 0.000000 -0.059113
v 0.211847 0.000000 -0.066903
v 0.209266 0.000000 -0.074297
v 0.205778 0.000000 -0.081222
v 0.201457 0.000000 -0.087606
v 0.196375 0.000000 -0.093375
v 0.190606 0.000000 -0.098457
v 0.184222 0.000000 -0.102778
v 0.177297 0.000000 -0.106266
v 0.169903 0.000000 -0.108847
v 0.162113 0.000000 -0.110450
v 0.082000 0.000000 -0.595000
v 0.084795 0.000000 -0.595538
v 0.087690 0.000000 -0.596139
v 0.090703 0.000000 -0.596781
v 0.093852 0.000000 -0.597444
v 0.097153 0.000000 -0.598108
v 0.100625 0.000000 -0.598750
v 0.104284 0.000000 -0.599351
v 0.108148 0.000000 -0.599889
v 0.112234 0.000000 -0.600344
v 0.116560 0.000000 -0.600694
v 0.121143 0.000000 -0.600920
v 0.126000 0.000000 -0.601000
v 0.135701 0.000000 -0.600446
v 0.144778 0.000000 -0.598815
v 0.153187 0.000000 -0.596156
v 0.160889 0.000000 -0.592519
v 0.167840 0.000000 -0.587950
v 0.174000 0.000000 -0.582500
v 0.179326 0.000000 -0.576216
v 0.183778 0.000000 -0.569148
v 0.187312 0.000000 -0.561344
v 0.189889 0.000000 -0.552852
v 0.191465 0.000000 -0.543721
v 0.192000 0.000000 -0.534000
v 0.189796 0.000000 -0.511655
v 0.183704 0.000000 -0.489986
v 0.174500 0.000000 -0.468797
v 0.162963 0.000000 -0.447889
v 0.149870 0.000000 -0.427064
v 0.136000 0.000000 -0.406125
v 0.122130 0.000000 -0.384873
v 0.109037 0.000000 -0.363111
v 0.097500 0.000000 -0.340641
v 0.088296 0.000000 -0.317264
v 0.082204 0.000000 -0.292783
v 0.080000 0.000000 -0.267000
v 0.080359 0.000000 -0.256138
v 0.081454 0.000000 -0.246019
v 0.083313 0.000000 -0.236594
v 0.085963 0.000000 -0.227815
v 0.089433 0.000000 -0.219633
v 0.093750 0.000000 -0.212000
v 0.098942 0.000000 -0.204867
v 0.105037 0.000000 -0.198185
v 0.112063 0.000000 -0.191906
v 0.120046 0.000000 -0.185982
v 0.129016 0.000000 -0.180362
v 0.139000 0.000000 -0.175000
v 0.139030 0.000000 -0.201072
v 0.145324 0.000000 -0.227829
v 0.156688 0.000000 -0.255328
v 0.171926 0.000000 -0.283630
v 0.189845 0.000000 -0.312792
v 0.209250 0.000000 -0.342875
v 0.228947 0.000000 -0.373937
v 0.247741 0.000000 -0.406037
v 0.264438 0.000000 -0.439234
v 0.277843 0.000000 -0.473588
v 0.286762 0.000000 -0.509157
v 0.290000 0.000000 -0.546000
v 0.289086 0.000000 -0.562106
v 0.286269 0.000000 -0.578685
v 0.281438 0.000000 -0.595375
v 0.274482 0.000000 -0.611815
v 0.265289 0.000000 -0.627644
v 0.253750 0.000000 -0.642500
v 0.239752 0.000000 -0.656023
v 0.223185 0.000000 -0.667852
v 0.203938 0.000000 -0.677625
v 0.181898 0.000000 -0.684982
v 0.156956 0.000000 -0.689560
v 0.129000 0.000000 -0.691000
vt 0.400000 0.000000
vt 0.991667 0.000000
vt 1.000000 0.000000
vt 0.983333 0.000000
vt 0.975000 0.000000
vt 0.966667 0.000000
vt 0.958333 0.000000
vt 0.950000 0.000000
vt 0.433333 0.000000
vt 0.441667 0.000000
vt 0.450000 0.000000
vt 0.941667 0.000000
vt 0.458333 0.000000
vt 0.466667 0.000000
vt 0.475000 0.000000
vt 0.483333 0.000000
vt 0.933333 0.000000
vt 0.491667 0.000000
vt 0.500000 0.000000
vt 0.925000 0.000000
vt 0.508333 0.000000
vt 0.516667 0.000000
vt 0.525000 0.000000
vt 0.425000 0.000000
vt 0.416667 0.000000
vt 0.533333 0.000000
vt 0.408333 0.000000
vt 0.916667 0.000000
vt 0.541667 0.000000
vt 0.550000 0.000000
vt 0.558333 0.000000
vt 0.908333 0.000000
vt 0.566667 0.000000
vt 0.575000 0.000000
vt 0.900000 0.000000
vt 0.583333 0.000000
vt 0.591667 0.000000
vt 0.891667 0.000000
vt 0.600000 0.000000
vt 0.608333 0.000000
vt 0.616667 0.000000
vt 0.883333 0.000000
vt 0.625000 0.000000
vt 0.875000 0.000000
vt 0.633333 0.000000
vt 0.641667 0.000000
vt 0.866667 0.000000
vt 0.650000 0.000000
vt 0.658333 0.000000
vt 0.858333 0.000000
vt 0.666667 0.000000
vt 0.850000 0.000000
vt 0.675000 0.000000
vt 0.841667 0.000000
vt 0.683333 0.000000
vt 0.691667 0.000000
vt 0.833333 0.000000
vt 0.700000 0.000000
vt 0.825000 0.000000
vt 0.708333 0.000000
vt 0.716667 0.000000
vt 0.816667 0.000000
vt 0.725000 0.000000
vt 0.733333 0.000000
vt 0.808333 0.000000
vt 0.741667 0.000000
vt 0.750000 0.000000
vt 0.758333 0.000000
vt 0.766667 0.000000
vt 0.800000 0.000000
vt 0.775000 0.000000
vt 0.783333 0.000000
vt 0.791667 0.000000
vt 0.008333 0.000000
vt 0.391667 0.000000
vt 0.000000 0.000000
vt 0.016667 0.000000
vt 0.383333 0.000000
vt 0.025000 0.000000
vt 0.375000 0.000000
vt 0.033333 0.000000
vt 0.366667 0.000000
vt 0.041667 0.000000
vt 0.358333 0.000000
vt 0.050000 0.000000
vt 0.350000 0.000000
vt 0.058333 0.000000
vt 0.341667 0.000000
vt 0.066667 0.000000
vt 0.333333 0.000000
vt 0.075000 0.000000
vt 0.325000 0.000000
vt 0.083333 0.000000
vt 0.316667 0.000000
vt 0.091667 0.000000
vt 0.308333 0.000000
vt 0.300000 0.000000
vt 0.100000 0.000000
vt 0.108333 0.000000
vt 0.291667 0.000000
vt 0.116667 0.000000
vt 0.283333 0.000000
vt 0.125000 0.000000
vt 0.275000 0.000000
vt 0.133333 0.000000
vt 0.266667 0.000000
vt 0.141667 0.000000
vt 0.258333 0.000000
vt 0.150000 0.000000
vt 0.250000 0.000000
vt 0.158333 0.000000
vt 0.241667 0.000000
vt 0.166667 0.000000
vt 0.233333 0.000000
vt 0.175000 0.000000
vt 0.225000 0.000000
vt 0.183333 0.000000
vt 0.216667 0.000000
vt 0.191667 0.000000
vt 0.208333 0.000000
vt 0.200000 0.000000
vn 0.0000 1.0000 0.0000
s off
f 49/1/1 120/2/1 121/3/1
f 49/1/1 119/4/1 120/2/1
f 49/1/1 118/5/1 119/4/1
f 49/1/1 117/6/1 118/5/1
f 49/1/1 116/7/1 117/6/1
f 49/1/1 115/8/1 116/7/1
f 49/1/1 53/9/1 115/8/1
f 53/9/1 54/10/1 115/8/1
f 54/10/1 55/11/1 115/8/1
f 55/11/1 114/12/1 115/8/1
f 55/11/1 56/13/1 114/12/1
f 56/13/1 57/14/1 114/12/1
f 57/14/1 58/15/1 114/12/1
f 58/15/1 59/16/1 114/12/1
f 59/16/1 113/17/1 114/12/1
f 59/16/1 60/18/1 113/17/1
f 60/18/1 61/19/1 113/17/1
f 61/19/1 112/20/1 113/17/1
f 62/21/1 112/20/1 61/19/1
f 63/22/1 112/20/1 62/21/1
f 64/23/1 112/20/1 63/22/1
f 49/1/1 52/24/1 53/9/1
f 49/1/1 51/25/1 52/24/1
f 65/26/1 112/20/1 64/23/1
f 49/1/1 50/27/1 51/25/1
f 65/26/1 111/28/1 112/20/1
f 66/29/1 111/28/1 65/26/1
f 67/30/1 111/28/1 66/29/1
f 68/31/1 111/28/1 67/30/1
f 68/31/1 110/32/1 111/28/1
f 69/33/1 110/32/1 68/31/1
f 70/34/1 110/32/1 69/33/1
f 70/34/1 109/35/1 110/32/1
f 71/36/1 109/35/1 70/34/1
f 72/37/1 109/35/1 71/36/1
f 72/37/1 108/38/1 109/35/1
f 73/39/1 108/38/1 72/37/1
f 74/40/1 108/38/1 73/39/1
f 75/41/1 108/38/1 74/40/1
f 75/41/1 107/42/1 108/38/1
f 76/43/1 107/42/1 75/41/1
f 76/43/1 106/44/1 107/42/1
f 77/45/1 106/44/1 76/43/1
f 78/46/1 106/44/1 77/45/1
f 78/46/1 105/47/1 106/44/1
f 79/48/1 105/47/1 78/46/1
f 80/49/1 105/47/1 79/48/1
f 80/49/1 104/50/1 105/47/1
f 81/51/1 104/50/1 80/49/1
f 81/51/1 103/52/1 104/50/1
f 82/53/1 103/52/1 81/51/1
f 82/53/1 102/54/1 103/52/1
f 83/55/1 102/54/1 82/53/1
f 84/56/1 102/54/1 83/55/1
f 84/56/1 101/57/1 102/54/1
f 85/58/1 101/57/1 84/56/1
f 85/58/1 100/59/1 101/57/1
f 86/60/1 100/59/1 85/58/1
f 87/61/1 100/59/1 86/60/1
f 87/61/1 99/62/1 100/59/1
f 88/63/1 99/62/1 87/61/1
f 89/64/1 99/62/1 88/63/1
f 89/64/1 98/65/1 99/62/1
f 90/66/1 98/65/1 89/64/1
f 91/67/1 98/65/1 90/66/1
f 92/68/1 98/65/1 91/67/1
f 93/69/1 98/65/1 92/68/1
f 93/69/1 97/70/1 98/65/1
f 94/71/1 97/70/1 93/69/1
f 95/72/1 97/70/1 94/71/1
f 96/73/1 97/70/1 95/72/1
f 2/74/1 48/75/1 1/76/1
f 3/77/1 48/75/1 2/74/1
f 3/77/1 47/78/1 48/75/1
f 4/79/1 47/78/1 3/77/1
f 4/79/1 46/80/1 47/78/1
f 5/81/1 46/80/1 4/79/1
f 5/81/1 45/82/1 46/80/1
f 6/83/1 45/82/1 5/81/1
f 6/83/1 44/84/1 45/82/1
f 7/85/1 44/84/1 6/83/1
f 7/85/1 43/86/1 44/84/1
f 8/87/1 43/86/1 7/85/1
f 8/87/1 42/88/1 43/86/1
f 9/89/1 42/88/1 8/87/1
f 9/89/1 41/90/1 42/88/1
f 10/91/1 41/90/1 9/89/1
f 10/91/1 40/92/1 41/90/1
f 11/93/1 40/92/1 10/91/1
f 11/93/1 39/94/1 40/92/1
f 12/95/1 39/94/1 11/93/1
f 12/95/1 38/96/1 39/94/1
f 12/95/1 37/97/1 38/96/1
f 13/98/1 37/97/1 12/95/1
f 14/99/1 37/97/1 13/98/1
f 14/99/1 36/100/1 37/97/1
f 15/101/1 36/100/1 14/99/1
f 15/101/1 35/102/1 36/100/1
f 16/103/1 35/102/1 15/101/1
f 16/103/1 34/104/1 35/102/1
f 17/105/1 34/104/1 16/103/1
f 17/105/1 33/106/1 34/104/1
f 18/107/1 33/106/1 17/105/1
f 18/107/1 32/108/1 33/106/1
f 19/109/1 32/108/1 18/107/1
f 19/109/1 31/110/1 32/108/1
f 20/111/1 31/110/1 19/109/1
f 20/111/1 30/112/1 31/110/1
f 21/113/1 30/112/1 20/111/1
f 21/113/1 29/114/1 30/112/1
f 22/115/1 29/114/1 21/113/1
f 22/115/1 28/116/1 29/114/1
f 23/117/1 28/116/1 22/115/1
f 23/117/1 27/118/1 28/116/1
f 24/119/1 27/118/1 23/117/1
f 24/119/1 26/120/1 27/118/1
f 25/121/1 26/120/1 24/119/1
