# Blender v3.4.1 OBJ File: 'letters-generator.blend'
# www.blender.org
o Text.078_Font_Curve.086
v 0.172000 0.000000 -0.682000
v 0.074000 0.000000 -0.682000
v 0.074000 0.000000 0.000000
v 0.480000 0.000000 0.000000
v 0.480000 0.000000 -0.088000
v 0.172000 0.000000 -0.088000
vt 0.400000 0.000000
vt 0.000000 0.000000
vt 0.200000 0.000000
vt 1.000000 0.000000
vt 0.800000 0.000000
vt 0.600000 0.000000
vn 0.0000 1.0000 0.0000
s off
f 3/1/1 1/2/1 2/3/1
f 3/1/1 6/4/1 1/2/1
f 3/1/1 5/5/1 6/4/1
f 3/1/1 4/6/1 5/5/1
