# Blender v3.4.1 OBJ File: 'letters-generator.blend'
# www.blender.org
o Text.038_Font_Curve.046
v 0.470000 0.000000 -0.596000
v 0.460155 0.000000 -0.603597
v 0.449241 0.000000 -0.610857
v 0.437438 0.000000 -0.617734
v 0.424926 0.000000 -0.624185
v 0.411887 0.000000 -0.630164
v 0.398500 0.000000 -0.635625
v 0.384947 0.000000 -0.640524
v 0.371407 0.000000 -0.644815
v 0.358063 0.000000 -0.648453
v 0.345093 0.000000 -0.651394
v 0.332678 0.000000 -0.653591
v 0.321000 0.000000 -0.655000
v 0.321000 0.000000 -0.691000
v 0.239000 0.000000 -0.691000
v 0.239000 0.000000 -0.655000
v 0.210953 0.000000 -0.649681
v 0.184870 0.000000 -0.642278
v 0.160844 0.000000 -0.632875
v 0.138963 0.000000 -0.621556
v 0.119318 0.000000 -0.608403
v 0.102000 0.000000 -0.593500
v 0.087098 0.000000 -0.576931
v 0.074704 0.000000 -0.558778
v 0.064906 0.000000 -0.539125
v 0.057796 0.000000 -0.518055
v 0.053464 0.000000 -0.495653
v 0.052000 0.000000 -0.472000
v 0.053235 0.000000 -0.455131
v 0.056963 0.000000 -0.438134
v 0.063219 0.000000 -0.421172
v 0.072037 0.000000 -0.404407
v 0.083453 0.000000 -0.388004
v 0.097500 0.000000 -0.372125
v 0.114214 0.000000 -0.356934
v 0.133630 0.000000 -0.342593
v 0.155781 0.000000 -0.329266
v 0.180704 0.000000 -0.317116
v 0.208432 0.000000 -0.306306
v 0.239000 0.000000 -0.297000
v 0.239000 0.000000 -0.081000
v 0.218457 0.000000 -0.086100
v 0.199657 0.000000 -0.091468
v 0.182344 0.000000 -0.097203
v 0.166259 0.000000 -0.103407
v 0.151147 0.000000 -0.110181
v 0.136750 0.000000 -0.117625
v 0.122811 0.000000 -0.125840
v 0.109074 0.000000 -0.134926
v 0.095281 0.000000 -0.144984
v 0.081176 0.000000 -0.156116
v 0.066501 0.000000 -0.168421
v 0.051000 0.000000 -0.182000
v 0.051000 0.000000 -0.061000
v 0.066444 0.000000 -0.052137
v 0.081801 0.000000 -0.043593
v 0.097109 0.000000 -0.035438
v 0.112407 0.000000 -0.027741
v 0.127733 0.000000 -0.020572
v 0.143125 0.000000 -0.014000
v 0.158621 0.000000 -0.008095
v 0.174259 0.000000 -0.002926
v 0.190078 0.000000 0.001438
v 0.206116 0.000000 0.004926
v 0.222410 0.000000 0.007470
v 0.239000 0.000000 0.009000
v 0.239000 0.000000 0.118000
v 0.321000 0.000000 0.118000
v 0.321000 0.000000 0.009000
v 0.350400 0.000000 0.004119
v 0.377116 0.000000 -0.003801
v 0.401172 0.000000 -0.014422
v 0.422593 0.000000 -0.027407
v 0.441402 0.000000 -0.042421
v 0.457625 0.000000 -0.059125
v 0.471285 0.000000 -0.077183
v 0.482407 0.000000 -0.096259
v 0.491016 0.000000 -0.116016
v 0.497134 0.000000 -0.136116
v 0.500788 0.000000 -0.156223
v 0.502000 0.000000 -0.176000
v 0.500616 0.000000 -0.198112
v 0.496509 0.000000 -0.219394
v 0.489750 0.000000 -0.239766
v 0.480407 0.000000 -0.259148
v 0.468551 0.000000 -0.277461
v 0.454250 0.000000 -0.294625
v 0.437574 0.000000 -0.310560
v 0.418593 0.000000 -0.325185
v 0.397375 0.000000 -0.338422
v 0.373991 0.000000 -0.350190
v 0.348509 0.000000 -0.360409
v 0.321000 0.000000 -0.369000
v 0.321000 0.000000 -0.567000
v 0.334187 0.000000 -0.563593
v 0.347662 0.000000 -0.559412
v 0.361297 0.000000 -0.554516
v 0.374963 0.000000 -0.548963
v 0.388532 0.000000 -0.542813
v 0.401875 0.000000 -0.536125
v 0.414864 0.000000 -0.528958
v 0.427370 0.000000 -0.521370
v 0.439266 0.000000 -0.513422
v 0.450421 0.000000 -0.505171
v 0.460709 0.000000 -0.496678
v 0.470000 0.000000 -0.488000
v 0.239000 0.000000 -0.396000
v 0.224225 0.000000 -0.401418
v 0.210880 0.000000 -0.407176
v 0.198937 0.000000 -0.413281
v 0.188370 0.000000 -0.419741
v 0.179150 0.000000 -0.426561
v 0.171250 0.000000 -0.433750
v 0.164641 0.000000 -0.441314
v 0.159296 0.000000 -0.449259
v 0.155187 0.000000 -0.457594
v 0.152287 0.000000 -0.466324
v 0.150567 0.000000 -0.475457
v 0.150000 0.000000 -0.485000
v 0.150758 0.000000 -0.495093
v 0.152981 0.000000 -0.504824
v 0.156594 0.000000 -0.514125
v 0.161519 0.000000 -0.522926
v 0.167679 0.000000 -0.531157
v 0.175000 0.000000 -0.538750
v 0.183404 0.000000 -0.545634
v 0.192815 0.000000 -0.551741
v 0.203156 0.000000 -0.557000
v 0.214352 0.000000 -0.561343
v 0.226325 0.000000 -0.564699
v 0.239000 0.000000 -0.567000
v 0.321000 0.000000 -0.262000
v 0.335697 0.000000 -0.255682
v 0.348824 0.000000 -0.249204
v 0.360438 0.000000 -0.242531
v 0.370593 0.000000 -0.235630
v 0.379345 0.000000 -0.228464
v 0.386750 0.000000 -0.221000
v 0.392863 0.000000 -0.213203
v 0.397741 0.000000 -0.205037
v 0.401438 0.000000 -0.196469
v 0.404009 0.000000 -0.187463
v 0.405512 0.000000 -0.177985
v 0.406000 0.000000 -0.168000
v 0.405397 0.000000 -0.157103
v 0.403593 0.000000 -0.146907
v 0.400594 0.000000 -0.137406
v 0.396407 0.000000 -0.128593
v 0.391041 0.000000 -0.120459
v 0.384500 0.000000 -0.113000
v 0.376793 0.000000 -0.106207
v 0.367926 0.000000 -0.100074
v 0.357906 0.000000 -0.094594
v 0.346741 0.000000 -0.089759
v 0.334436 0.000000 -0.085564
v 0.321000 0.000000 -0.082000
vt 0.096774 0.000000
vt 0.083871 0.000000
vt 0.090323 0.000000
vt 0.077419 0.000000
vt 0.103226 0.000000
vt 0.070968 0.000000
vt 0.064516 0.000000
vt 0.058065 0.000000
vt 0.109677 0.000000
vt 0.051613 0.000000
vt 0.045161 0.000000
vt 0.116129 0.000000
vt 0.038710 0.000000
vt 0.032258 0.000000
vt 0.122581 0.000000
vt 0.025806 0.000000
vt 0.019355 0.000000
vt 0.129032 0.000000
vt 0.012903 0.000000
vt 0.006452 0.000000
vt 0.135484 0.000000
vt 0.000000 0.000000
vt 0.600000 0.000000
vt 0.606452 0.000000
vt 0.612903 0.000000
vt 0.619355 0.000000
vt 0.625806 0.000000
vt 0.632258 0.000000
vt 0.638710 0.000000
vt 0.645161 0.000000
vt 0.651613 0.000000
vt 0.658065 0.000000
vt 0.664516 0.000000
vt 0.670968 0.000000
vt 0.677419 0.000000
vt 0.141935 0.000000
vt 0.148387 0.000000
vt 0.838710 0.000000
vt 0.832258 0.000000
vt 0.683871 0.000000
vt 0.593548 0.000000
vt 0.825806 0.000000
vt 0.819355 0.000000
vt 0.154839 0.000000
vt 0.812903 0.000000
vt 0.806452 0.000000
vt 0.800000 0.000000
vt 0.161290 0.000000
vt 0.793548 0.000000
vt 0.787097 0.000000
vt 0.780645 0.000000
vt 0.167742 0.000000
vt 0.774194 0.000000
vt 0.767742 0.000000
vt 0.174194 0.000000
vt 0.761290 0.000000
vt 0.754839 0.000000
vt 0.748387 0.000000
vt 0.180645 0.000000
vt 0.741935 0.000000
vt 0.735484 0.000000
vt 0.187097 0.000000
vt 0.729032 0.000000
vt 0.722581 0.000000
vt 0.193548 0.000000
vt 0.716129 0.000000
vt 0.709677 0.000000
vt 0.200000 0.000000
vt 0.703226 0.000000
vt 0.696774 0.000000
vt 0.690323 0.000000
vt 0.206452 0.000000
vt 0.212903 0.000000
vt 0.219355 0.000000
vt 0.587097 0.000000
vt 0.580645 0.000000
vt 0.225806 0.000000
vt 0.574194 0.000000
vt 0.232258 0.000000
vt 0.567742 0.000000
vt 0.238710 0.000000
vt 0.561290 0.000000
vt 0.245161 0.000000
vt 0.554839 0.000000
vt 0.251613 0.000000
vt 0.258065 0.000000
vt 0.845161 0.000000
vt 0.548387 0.000000
vt 0.541936 0.000000
vt 1.000000 0.000000
vt 0.851613 0.000000
vt 0.535484 0.000000
vt 0.858065 0.000000
vt 0.864516 0.000000
vt 0.870968 0.000000
vt 0.529032 0.000000
vt 0.877419 0.000000
vt 0.883871 0.000000
vt 0.890323 0.000000
vt 0.522581 0.000000
vt 0.896774 0.000000
vt 0.903226 0.000000
vt 0.516129 0.000000
vt 0.909677 0.000000
vt 0.916129 0.000000
vt 0.341935 0.000000
vt 0.329032 0.000000
vt 0.335484 0.000000
vt 0.922581 0.000000
vt 0.509677 0.000000
vt 0.322581 0.000000
vt 0.929032 0.000000
vt 0.935484 0.000000
vt 0.503226 0.000000
vt 0.316129 0.000000
vt 0.941935 0.000000
vt 0.309677 0.000000
vt 0.948387 0.000000
vt 0.496774 0.000000
vt 0.303226 0.000000
vt 0.954839 0.000000
vt 0.296774 0.000000
vt 0.961290 0.000000
vt 0.290323 0.000000
vt 0.490323 0.000000
vt 0.967742 0.000000
vt 0.283871 0.000000
vt 0.974194 0.000000
vt 0.277419 0.000000
vt 0.980645 0.000000
vt 0.270968 0.000000
vt 0.483871 0.000000
vt 0.987097 0.000000
vt 0.264516 0.000000
vt 0.993548 0.000000
vt 0.477419 0.000000
vt 0.348387 0.000000
vt 0.470968 0.000000
vt 0.354839 0.000000
vt 0.361290 0.000000
vt 0.464516 0.000000
vt 0.367742 0.000000
vt 0.374194 0.000000
vt 0.458065 0.000000
vt 0.380645 0.000000
vt 0.451613 0.000000
vt 0.387097 0.000000
vt 0.393548 0.000000
vt 0.445161 0.000000
vt 0.400000 0.000000
vt 0.406452 0.000000
vt 0.438710 0.000000
vt 0.412903 0.000000
vt 0.419355 0.000000
vt 0.425806 0.000000
vt 0.432258 0.000000
vn 0.0000 1.0000 0.0000
s off
f 16/1/1 14/2/1 15/3/1
f 16/1/1 13/4/1 14/2/1
f 17/5/1 13/4/1 16/1/1
f 17/5/1 12/6/1 13/4/1
f 17/5/1 11/7/1 12/6/1
f 17/5/1 10/8/1 11/7/1
f 18/9/1 10/8/1 17/5/1
f 18/9/1 9/10/1 10/8/1
f 18/9/1 8/11/1 9/10/1
f 19/12/1 8/11/1 18/9/1
f 19/12/1 7/13/1 8/11/1
f 19/12/1 6/14/1 7/13/1
f 20/15/1 6/14/1 19/12/1
f 20/15/1 5/16/1 6/14/1
f 20/15/1 4/17/1 5/16/1
f 21/18/1 4/17/1 20/15/1
f 21/18/1 3/19/1 4/17/1
f 21/18/1 2/20/1 3/19/1
f 22/21/1 2/20/1 21/18/1
f 22/21/1 1/22/1 2/20/1
f 22/21/1 94/23/1 1/22/1
f 94/23/1 95/24/1 1/22/1
f 95/24/1 96/25/1 1/22/1
f 96/25/1 97/26/1 1/22/1
f 97/26/1 98/27/1 1/22/1
f 98/27/1 99/28/1 1/22/1
f 99/28/1 100/29/1 1/22/1
f 100/29/1 101/30/1 1/22/1
f 101/30/1 102/31/1 1/22/1
f 102/31/1 103/32/1 1/22/1
f 103/32/1 104/33/1 1/22/1
f 104/33/1 105/34/1 1/22/1
f 105/34/1 106/35/1 1/22/1
f 23/36/1 94/23/1 22/21/1
f 24/37/1 131/38/1 23/36/1
f 131/38/1 94/23/1 23/36/1
f 24/37/1 130/39/1 131/38/1
f 107/40/1 94/23/1 131/38/1
f 107/40/1 93/41/1 94/23/1
f 24/37/1 129/42/1 130/39/1
f 24/37/1 128/43/1 129/42/1
f 25/44/1 128/43/1 24/37/1
f 25/44/1 127/45/1 128/43/1
f 25/44/1 126/46/1 127/45/1
f 25/44/1 125/47/1 126/46/1
f 26/48/1 125/47/1 25/44/1
f 26/48/1 124/49/1 125/47/1
f 26/48/1 123/50/1 124/49/1
f 26/48/1 122/51/1 123/50/1
f 27/52/1 122/51/1 26/48/1
f 27/52/1 121/53/1 122/51/1
f 27/52/1 120/54/1 121/53/1
f 28/55/1 120/54/1 27/52/1
f 28/55/1 119/56/1 120/54/1
f 28/55/1 118/57/1 119/56/1
f 28/55/1 117/58/1 118/57/1
f 29/59/1 117/58/1 28/55/1
f 29/59/1 116/60/1 117/58/1
f 29/59/1 115/61/1 116/60/1
f 30/62/1 115/61/1 29/59/1
f 30/62/1 114/63/1 115/61/1
f 30/62/1 113/64/1 114/63/1
f 31/65/1 113/64/1 30/62/1
f 31/65/1 112/66/1 113/64/1
f 31/65/1 111/67/1 112/66/1
f 32/68/1 111/67/1 31/65/1
f 32/68/1 110/69/1 111/67/1
f 32/68/1 109/70/1 110/69/1
f 32/68/1 108/71/1 109/70/1
f 33/72/1 108/71/1 32/68/1
f 33/72/1 107/40/1 108/71/1
f 33/72/1 93/41/1 107/40/1
f 34/73/1 93/41/1 33/72/1
f 35/74/1 93/41/1 34/73/1
f 35/74/1 92/75/1 93/41/1
f 35/74/1 91/76/1 92/75/1
f 36/77/1 91/76/1 35/74/1
f 36/77/1 90/78/1 91/76/1
f 37/79/1 90/78/1 36/77/1
f 37/79/1 89/80/1 90/78/1
f 38/81/1 89/80/1 37/79/1
f 38/81/1 88/82/1 89/80/1
f 39/83/1 88/82/1 38/81/1
f 39/83/1 87/84/1 88/82/1
f 40/85/1 87/84/1 39/83/1
f 41/86/1 132/87/1 40/85/1
f 132/87/1 87/84/1 40/85/1
f 132/87/1 86/88/1 87/84/1
f 132/87/1 85/89/1 86/88/1
f 41/86/1 156/90/1 132/87/1
f 133/91/1 85/89/1 132/87/1
f 133/91/1 84/92/1 85/89/1
f 134/93/1 84/92/1 133/91/1
f 135/94/1 84/92/1 134/93/1
f 136/95/1 84/92/1 135/94/1
f 136/95/1 83/96/1 84/92/1
f 137/97/1 83/96/1 136/95/1
f 138/98/1 83/96/1 137/97/1
f 139/99/1 83/96/1 138/98/1
f 139/99/1 82/100/1 83/96/1
f 140/101/1 82/100/1 139/99/1
f 141/102/1 82/100/1 140/101/1
f 141/102/1 81/103/1 82/100/1
f 142/104/1 81/103/1 141/102/1
f 143/105/1 81/103/1 142/104/1
f 54/106/1 52/107/1 53/108/1
f 144/109/1 81/103/1 143/105/1
f 144/109/1 80/110/1 81/103/1
f 54/106/1 51/111/1 52/107/1
f 145/112/1 80/110/1 144/109/1
f 146/113/1 80/110/1 145/112/1
f 146/113/1 79/114/1 80/110/1
f 54/106/1 50/115/1 51/111/1
f 147/116/1 79/114/1 146/113/1
f 54/106/1 49/117/1 50/115/1
f 148/118/1 79/114/1 147/116/1
f 148/118/1 78/119/1 79/114/1
f 54/106/1 48/120/1 49/117/1
f 149/121/1 78/119/1 148/118/1
f 54/106/1 47/122/1 48/120/1
f 150/123/1 78/119/1 149/121/1
f 54/106/1 46/124/1 47/122/1
f 150/123/1 77/125/1 78/119/1
f 151/126/1 77/125/1 150/123/1
f 54/106/1 45/127/1 46/124/1
f 152/128/1 77/125/1 151/126/1
f 54/106/1 44/129/1 45/127/1
f 153/130/1 77/125/1 152/128/1
f 54/106/1 43/131/1 44/129/1
f 153/130/1 76/132/1 77/125/1
f 154/133/1 76/132/1 153/130/1
f 54/106/1 42/134/1 43/131/1
f 155/135/1 76/132/1 154/133/1
f 54/106/1 41/86/1 42/134/1
f 156/90/1 76/132/1 155/135/1
f 41/86/1 76/132/1 156/90/1
f 54/106/1 76/132/1 41/86/1
f 54/106/1 75/136/1 76/132/1
f 55/137/1 75/136/1 54/106/1
f 55/137/1 74/138/1 75/136/1
f 56/139/1 74/138/1 55/137/1
f 57/140/1 74/138/1 56/139/1
f 57/140/1 73/141/1 74/138/1
f 58/142/1 73/141/1 57/140/1
f 59/143/1 73/141/1 58/142/1
f 59/143/1 72/144/1 73/141/1
f 60/145/1 72/144/1 59/143/1
f 60/145/1 71/146/1 72/144/1
f 61/147/1 71/146/1 60/145/1
f 62/148/1 71/146/1 61/147/1
f 62/148/1 70/149/1 71/146/1
f 63/150/1 70/149/1 62/148/1
f 64/151/1 70/149/1 63/150/1
f 64/151/1 69/152/1 70/149/1
f 65/153/1 69/152/1 64/151/1
f 66/154/1 69/152/1 65/153/1
f 67/155/1 69/152/1 66/154/1
f 67/155/1 68/156/1 69/152/1
