# Blender v3.4.1 OBJ File: 'letters-generator.blend'
# www.blender.org
o Text.037_Font_Curve.045
v 0.196000 0.000000 -0.617000
v 0.155000 0.000000 -0.422000
v 0.001000 0.000000 -0.422000
v 0.001000 0.000000 -0.353000
v 0.141000 0.000000 -0.353000
v 0.105000 0.000000 -0.183000
v 0.001000 0.000000 -0.183000
v 0.001000 0.000000 -0.114000
v 0.091000 0.000000 -0.114000
v 0.050000 0.000000 0.081000
v 0.122000 0.000000 0.081000
v 0.163000 0.000000 -0.114000
v 0.357000 0.000000 -0.114000
v 0.316000 0.000000 0.081000
v 0.388000 0.000000 0.081000
v 0.429000 0.000000 -0.114000
v 0.584000 0.000000 -0.114000
v 0.584000 0.000000 -0.183000
v 0.443000 0.000000 -0.183000
v 0.479000 0.000000 -0.353000
v 0.584000 0.000000 -0.353000
v 0.584000 0.000000 -0.422000
v 0.493000 0.000000 -0.422000
v 0.534000 0.000000 -0.617000
v 0.462000 0.000000 -0.617000
v 0.421000 0.000000 -0.422000
v 0.227000 0.000000 -0.422000
v 0.268000 0.000000 -0.617000
v 0.213000 0.000000 -0.353000
v 0.407000 0.000000 -0.353000
v 0.371000 0.000000 -0.183000
v 0.177000 0.000000 -0.183000
vt 0.032258 0.000000
vt 0.870968 0.000000
vt 0.000000 0.000000
vt 0.838710 0.000000
vt 0.806452 0.000000
vt 0.741935 0.000000
vt 0.774194 0.000000
vt 0.709677 0.000000
vt 0.096774 0.000000
vt 0.064516 0.000000
vt 0.677419 0.000000
vt 0.645161 0.000000
vt 0.129032 0.000000
vt 0.161290 0.000000
vt 0.903226 0.000000
vt 1.000000 0.000000
vt 0.935484 0.000000
vt 0.967742 0.000000
vt 0.612903 0.000000
vt 0.580645 0.000000
vt 0.225806 0.000000
vt 0.193548 0.000000
vt 0.548387 0.000000
vt 0.516129 0.000000
vt 0.258065 0.000000
vt 0.290323 0.000000
vt 0.354839 0.000000
vt 0.322581 0.000000
vt 0.387097 0.000000
vt 0.419355 0.000000
vt 0.483871 0.000000
vt 0.451613 0.000000
vn 0.0000 1.0000 0.0000
vn 0.0000 0.0000 1.0000
s off
f 2/1/1 28/2/1 1/3/1
f 2/1/1 27/4/1 28/2/1
f 26/5/1 24/6/1 25/7/1
f 26/5/1 23/8/1 24/6/1
f 4/9/1 2/1/1 3/10/1
f 4/9/1 27/4/1 2/1/1
f 4/9/1 26/5/1 27/4/1
f 4/9/1 23/8/1 26/5/1
f 4/9/1 22/11/1 23/8/1
f 4/9/1 21/12/1 22/11/1
f 5/13/2 21/12/2 4/9/2
f 6/14/1 29/15/1 5/13/1
f 29/15/2 21/12/2 5/13/2
f 6/14/1 32/16/1 29/15/1
f 30/17/2 21/12/2 29/15/2
f 31/18/1 20/19/1 30/17/1
f 20/19/2 21/12/2 30/17/2
f 31/18/1 19/20/1 20/19/1
f 8/21/1 6/14/1 7/22/1
f 8/21/1 32/16/1 6/14/1
f 8/21/1 31/18/1 32/16/1
f 8/21/1 19/20/1 31/18/1
f 8/21/1 18/23/1 19/20/1
f 8/21/1 17/24/1 18/23/1
f 9/25/2 17/24/2 8/21/2
f 10/26/1 12/27/1 9/25/1
f 12/27/2 17/24/2 9/25/2
f 10/26/1 11/28/1 12/27/1
f 13/29/2 17/24/2 12/27/2
f 14/30/1 16/31/1 13/29/1
f 16/31/2 17/24/2 13/29/2
f 14/30/1 15/32/1 16/31/1
