# Blender v3.4.1 OBJ File: 'letters-generator.blend'
# www.blender.org
o Text.045_Font_Curve.053
v 0.251000 0.000000 -0.589000
v 0.251000 0.000000 -0.394000
v 0.056000 0.000000 -0.394000
v 0.056000 0.000000 -0.312000
v 0.251000 0.000000 -0.312000
v 0.251000 0.000000 -0.117000
v 0.333000 0.000000 -0.117000
v 0.333000 0.000000 -0.312000
v 0.528000 0.000000 -0.312000
v 0.528000 0.000000 -0.394000
v 0.333000 0.000000 -0.394000
v 0.333000 0.000000 -0.589000
vt 0.090909 0.000000
vt 1.000000 0.000000
vt 0.000000 0.000000
vt 0.909091 0.000000
vt 0.272727 0.000000
vt 0.181818 0.000000
vt 0.818182 0.000000
vt 0.727273 0.000000
vt 0.363636 0.000000
vt 0.454545 0.000000
vt 0.636364 0.000000
vt 0.545455 0.000000
vn 0.0000 1.0000 0.0000
vn 0.0000 0.0000 1.0000
s off
f 2/1/1 12/2/1 1/3/1
f 2/1/1 11/4/1 12/2/1
f 4/5/1 2/1/1 3/6/1
f 4/5/1 11/4/1 2/1/1
f 4/5/1 10/7/1 11/4/1
f 4/5/1 9/8/1 10/7/1
f 5/9/2 9/8/2 4/5/2
f 6/10/1 8/11/1 5/9/1
f 8/11/2 9/8/2 5/9/2
f 6/10/1 7/12/1 8/11/1
